<svg height="512" viewBox="0 0 64 64" width="512" xmlns="http://www.w3.org/2000/svg"><rect fill="#00763a" height="52" rx="1" width="58" x="3" y="9"/><path d="m31 6v-3h-4v3h-2v3h2 4 2v-3z" fill="#d3d3d3"/><path d="m58 6v-3h-3v3h-1v3h1 3 1v-3z" fill="#ababab"/><path d="m48 6v-3h-9v3h-2v3h2 9 2v-3z" fill="#ababab"/><circle cx="14" cy="44" fill="#ffcc46" r="2"/><circle cx="17" cy="52" fill="#1b79dc" r="1"/><circle cx="21" cy="52" fill="#1b79dc" r="1"/><circle cx="19" cy="49" fill="#1b79dc" r="1"/><circle cx="18" cy="42" fill="#1b79dc" r="1"/><circle cx="22" cy="42" fill="#1b79dc" r="1"/><circle cx="26" cy="42" fill="#1b79dc" r="1"/><circle cx="41" cy="17" fill="#454545" r="1"/><circle cx="7" cy="13" fill="#454545" r="1"/><circle cx="11" cy="13" fill="#d3d3d3" r="1"/><circle cx="15" cy="13" fill="#d3d3d3" r="1"/><circle cx="45" cy="17" fill="#454545" r="1"/><circle cx="49" cy="17" fill="#454545" r="1"/><circle cx="57" cy="57" fill="#1b79dc" r="1"/><circle cx="7" cy="57" fill="#1b79dc" r="1"/><circle cx="57" cy="13" fill="#454545" r="1"/><circle cx="11" cy="35" fill="#1b79dc" r="1"/><g fill="#454545"><path d="m36 6h2v3h-2z"/><path d="m58 6h2v3h-2z"/><path d="m53 6h2v3h-2z"/><path d="m49 6h2v3h-2z"/><path d="m49 6h-2v-2h-7v2h-2v-3a1 1 0 0 1 1-1h9a1 1 0 0 1 1 1z"/><path d="m24 6h2v3h-2z"/><path d="m32 6h2v3h-2z"/><path d="m32 6h-2v-2h-2v2h-2v-3a1 1 0 0 1 1-1h4a1 1 0 0 1 1 1z"/><path d="m59 6h-2v-2h-1v2h-2v-3a1 1 0 0 1 1-1h3a1 1 0 0 1 1 1z"/><path d="m6 16h2v21h-2z"/><path d="m10 16h2v7h-2z"/><path d="m14 16h2v23h-2z"/></g><path d="m54 25-3-4h-14l-3 4v12l3 4h14l3-4z" fill="#feb314"/><path d="m51 42h-14a1 1 0 0 1 -.8-.4l-3-4a1 1 0 0 1 -.2-.6v-12a1 1 0 0 1 .2-.6l3-4a1 1 0 0 1 .8-.4h14a1 1 0 0 1 .8.4l3 4a1 1 0 0 1 .2.6v12a1 1 0 0 1 -.2.6l-3 4a1 1 0 0 1 -.8.4zm-13.5-2h13l2.5-3.333v-11.334l-2.5-3.333h-13l-2.5 3.333v11.334z" fill="#454545"/><path d="m54 27a2 2 0 1 1 2-2 2 2 0 0 1 -2 2z" fill="#ababab"/><path d="m54 39a2 2 0 1 1 2-2 2 2 0 0 1 -2 2z" fill="#ababab"/><path d="m34 39a2 2 0 1 1 2-2 2 2 0 0 1 -2 2z" fill="#ababab"/><path d="m34 27a2 2 0 1 1 2-2 2 2 0 0 1 -2 2z" fill="#ababab"/><path d="m49 37h-10a1 1 0 0 1 -1-1v-10a1 1 0 0 1 1-1h10a1 1 0 0 1 1 1v10a1 1 0 0 1 -1 1zm-9-2h8v-8h-8z" fill="#ababab"/><path d="m27 44h27v2h-27z" fill="#454545"/><path d="m23 44h2v2h-2z" fill="#454545"/><path d="m56 44h2v2h-2z" fill="#454545"/><path d="m27 48h27v2h-27z" fill="#454545"/><path d="m23 48h2v2h-2z" fill="#454545"/><path d="m56 48h2v2h-2z" fill="#454545"/><path d="m30 52h2v2h-2z" fill="#ababab"/><path d="m30 56h2v2h-2z" fill="#ababab"/><path d="m34 52h2v2h-2z" fill="#ababab"/><path d="m34 56h2v2h-2z" fill="#ababab"/><path d="m38 52h2v2h-2z" fill="#ababab"/><path d="m38 56h2v2h-2z" fill="#ababab"/><path d="m42 52h2v2h-2z" fill="#ababab"/><path d="m42 56h2v2h-2z" fill="#ababab"/><path d="m6 42h2v4h-2z"/><path d="m7 43h2v2h-2z"/><path d="m6 48h2v4h-2z"/><path d="m7 49h2v2h-2z"/><path d="m11 54h2v4h-2z"/><path d="m12 55h2v2h-2z"/><path d="m11 48h2v4h-2z"/><path d="m12 49h2v2h-2z"/><path d="m14 47a3 3 0 1 1 3-3 3 3 0 0 1 -3 3zm0-4a1 1 0 1 0 1 1 1 1 0 0 0 -1-1z" fill="#ababab"/><path d="m37 9h13a0 0 0 0 1 0 0v3a1 1 0 0 1 -1 1h-11a1 1 0 0 1 -1-1v-3a0 0 0 0 1 0 0z" fill="#ababab"/><path d="m58 20h-2v-2h-2v2h-2v-3a1 1 0 0 1 1-1h4a1 1 0 0 1 1 1z" fill="#ababab"/><path d="m25 9h8a0 0 0 0 1 0 0v3a1 1 0 0 1 -1 1h-6a1 1 0 0 1 -1-1v-3a0 0 0 0 1 0 0z" fill="#ababab"/><path d="m20 17h2v2h-2z" fill="#d3d3d3"/><path d="m23 14h2v2h-2z" fill="#d3d3d3"/><path d="m23 20h2v2h-2z" fill="#d3d3d3"/><path d="m26 17h2v2h-2z" fill="#d3d3d3"/><path d="m46 54h2v2h-2z" fill="#d3d3d3"/><path d="m49 51h2v2h-2z" fill="#d3d3d3"/><path d="m49 57h2v2h-2z" fill="#d3d3d3"/><path d="m52 54h2v2h-2z" fill="#d3d3d3"/><path d="m16 56h11v2h-11z" fill="#454545"/><path d="m10 25h2v3h-2z" fill="#454545"/><path d="m20 6h2v3h-2z" fill="#454545"/><path d="m16 6h2v3h-2z" fill="#454545"/><path d="m49 14h-11a2 2 0 0 1 -2-2v-3a1 1 0 0 1 1-1h13a1 1 0 0 1 1 1v3a2 2 0 0 1 -2 2zm-11-4v2h11v-2z" fill="#454545"/><path d="m32 14h-6a2 2 0 0 1 -2-2v-3a1 1 0 0 1 1-1h8a1 1 0 0 1 1 1v3a2 2 0 0 1 -2 2zm-6-4v2h6v-2z" fill="#454545"/><path d="m29 39h-10a1 1 0 0 1 -1-1v-14a1 1 0 0 1 1-1h10a1 1 0 0 1 1 1v14a1 1 0 0 1 -1 1zm-9-2h8v-12h-8z" fill="#ababab"/><path d="m19 24h10v14h-10z" fill="#d3d3d3"/><path d="m29 35h-10a1 1 0 0 1 -1-1v-6a1 1 0 0 1 1-1h10a1 1 0 0 1 1 1v6a1 1 0 0 1 -1 1zm-9-2h8v-4h-8z" fill="#ababab"/><path d="m19 28h10v6h-10z" fill="#6f6f6f"/><path d="m39 26h10v10h-10z" fill="#454545"/><path d="m52 58h-4a1 1 0 0 1 -1-1v-4a1 1 0 0 1 1-1h4a1 1 0 0 1 1 1v4a1 1 0 0 1 -1 1zm-3-2h2v-2h-2z" fill="#ababab"/><path d="m48 53h4v4h-4z" fill="#b3201b"/><path d="m26 21h-4a1 1 0 0 1 -1-1v-4a1 1 0 0 1 1-1h4a1 1 0 0 1 1 1v4a1 1 0 0 1 -1 1zm-3-2h2v-2h-2z" fill="#ababab"/><path d="m22 16h4v4h-4z" fill="#454545"/><path d="m53 17h4v3h-4z" fill="#ffcc46"/></svg>