<?xml version="1.0" encoding="iso-8859-1"?>
<!-- Generator: Adobe Illustrator 19.0.0, SVG Export Plug-In . SVG Version: 6.00 Build 0)  -->
<svg version="1.1" id="Capa_1" xmlns="http://www.w3.org/2000/svg" xmlns:xlink="http://www.w3.org/1999/xlink" x="0px" y="0px"
	 viewBox="0 0 480 480" style="enable-background:new 0 0 480 480;" xml:space="preserve">
<g>
	<g>
		<g>
			<path d="M480,96V0H0v96h40v288H0v64h16v32h448v-32h16v-64h-40V176h40v-48h-40V96H480z M448,464H32v-16h416V464z M200,432v-8h80v8
				H200z M464,400v32H296v-24H184v24H16v-32H464z M288,144v24c0,4.418-3.582,8-8,8h-80c-4.418,0-8-3.582-8-8v-24H288z M216,128V96
				h48v32H216z M280,128V96h144v32h-56v16.704l-64-0.624V128H280z M200,128h-24v40c0,13.255,10.745,24,24,24h8v8h16v-8h32v8h16v-8h8
				c13.255,0,24-10.745,24-24v-7.92l64,0.624V176h56v208H296c13.255,0,24-10.745,24-24v-16h16c8.837,0,16-7.163,16-16v-48h-32v-8
				H160v88c0,13.255,10.745,24,24,24H56V96h144V128z M184,368c-4.418,0-8-3.582-8-8v-72h128v56v16c0,4.418-3.582,8-8,8H184z
				 M320,328v-32h16v32H320z M464,144v16h-80v-16H464z M16,80V16h448v64H16z"/>
			<path d="M352,72h80V24h-80V72z M368,40h48v16h-48V40z"/>
			<rect x="208" y="216" width="16" height="16"/>
			<rect x="256" y="232" width="16" height="16"/>
			<rect x="48" y="32" width="32" height="16"/>
			<rect x="96" y="32" width="16" height="16"/>
			<rect x="128" y="32" width="16" height="16"/>
		</g>
	</g>
</g>
<g>
</g>
<g>
</g>
<g>
</g>
<g>
</g>
<g>
</g>
<g>
</g>
<g>
</g>
<g>
</g>
<g>
</g>
<g>
</g>
<g>
</g>
<g>
</g>
<g>
</g>
<g>
</g>
<g>
</g>
</svg>
