<?xml version="1.0" encoding="utf-8"?>
<!-- Generator: Adobe Illustrator 24.1.1, SVG Export Plug-In . SVG Version: 6.00 Build 0)  -->
<svg version="1.1" id="Layer_1" xmlns="http://www.w3.org/2000/svg" xmlns:xlink="http://www.w3.org/1999/xlink" x="0px" y="0px"
	 viewBox="0 0 1920 1080" style="enable-background:new 0 0 1920 1080;" xml:space="preserve">
<style type="text/css">
	.st0{fill:url(#SVGID_1_);}
	.st1{fill:url(#SVGID_2_);}
	.st2{fill:url(#SVGID_3_);}
	.st3{fill:url(#SVGID_4_);}
	.st4{fill:url(#SVGID_5_);}
	.st5{fill:url(#SVGID_6_);}
	.st6{fill:url(#SVGID_7_);}
	.st7{fill:url(#SVGID_8_);}
	.st8{fill:url(#SVGID_9_);}
	.st9{fill:url(#SVGID_10_);}
	.st10{fill:url(#SVGID_11_);}
	.st11{fill:url(#SVGID_12_);}
	.st12{fill:url(#SVGID_13_);}
	.st13{fill:url(#SVGID_14_);}
	.st14{fill:url(#SVGID_15_);}
	.st15{fill:#FFFFFF;}
	.st16{fill:url(#SVGID_16_);}
	.st17{fill:url(#SVGID_17_);}
	.st18{fill:url(#SVGID_18_);}
	.st19{fill:url(#SVGID_19_);}
	.st20{fill:#EB1F74;}
	.st21{fill:url(#SVGID_20_);}
	.st22{fill:url(#SVGID_21_);}
	.st23{fill:url(#SVGID_22_);}
	.st24{fill:url(#SVGID_23_);}
	.st25{fill:url(#SVGID_24_);}
	.st26{fill:url(#SVGID_25_);}
	.st27{fill:url(#SVGID_26_);}
	.st28{fill:url(#SVGID_27_);}
	.st29{fill:url(#SVGID_28_);}
</style>
<g>
	<g>
		<linearGradient id="SVGID_1_" gradientUnits="userSpaceOnUse" x1="560.4808" y1="581.097" x2="594.1829" y2="374.2885">
			<stop  offset="0" style="stop-color:#172AB4"/>
			<stop  offset="1" style="stop-color:#00CBFF"/>
		</linearGradient>
		<path class="st0" d="M503.23,447.82h149.83v49.69h-50.45v140.71h-49.94V497.52h-49.44V447.82z"/>
		<linearGradient id="SVGID_2_" gradientUnits="userSpaceOnUse" x1="862.3161" y1="630.2849" x2="896.0182" y2="423.4764">
			<stop  offset="0" style="stop-color:#172AB4"/>
			<stop  offset="1" style="stop-color:#00CBFF"/>
		</linearGradient>
		<path class="st1" d="M817.32,448.08h49.94v139.95h68.45v50.2h-118.4V448.08z"/>
		<linearGradient id="SVGID_3_" gradientUnits="userSpaceOnUse" x1="1026.048" y1="656.9672" x2="1059.7501" y2="450.1587">
			<stop  offset="0" style="stop-color:#172AB4"/>
			<stop  offset="1" style="stop-color:#00CBFF"/>
		</linearGradient>
		<path class="st2" d="M1128.39,448.08l-86.71,86.96l102.93,103.19h-70.48l-67.69-67.44l-11.92,12.17v55.27h-49.95V448.08h49.95
			v64.14l63.89-64.14H1128.39z"/>
		<linearGradient id="SVGID_4_" gradientUnits="userSpaceOnUse" x1="714.9072" y1="606.2628" x2="748.6093" y2="399.4542">
			<stop  offset="0" style="stop-color:#172AB4"/>
			<stop  offset="1" style="stop-color:#00CBFF"/>
		</linearGradient>
		<path class="st3" d="M737.4,588.8l11.12,23.88h0.08l11.66,24.85h49.95l-89.5-190.15h-22.56l-88.73,190.15h49.53l23.45-49.72
			L737.4,588.8z M710.62,499.97c17.64,0,31.94,14.3,31.94,31.94c0,5.62-1.46,10.9-4.01,15.49l5.94,17.18l-16.98-5.57
			c-4.9,3.06-10.69,4.83-16.89,4.83c-17.64,0-31.94-14.3-31.94-31.94C678.68,514.27,692.98,499.97,710.62,499.97z"/>
	</g>
	<g>
		<linearGradient id="SVGID_5_" gradientUnits="userSpaceOnUse" x1="1145.6301" y1="605.8209" x2="1239.0769" y2="395.9485">
			<stop  offset="0" style="stop-color:#EB2275"/>
			<stop  offset="1" style="stop-color:#FF4000"/>
		</linearGradient>
		<path class="st4" d="M1193.45,541.68h13.26v-93.82h-23.27v83.44C1188.53,532.43,1192.5,536.52,1193.45,541.68z"/>
		<linearGradient id="SVGID_6_" gradientUnits="userSpaceOnUse" x1="1151.8652" y1="608.5971" x2="1245.312" y2="398.7247">
			<stop  offset="0" style="stop-color:#EB2275"/>
			<stop  offset="1" style="stop-color:#FF4000"/>
		</linearGradient>
		<path class="st5" d="M1180.6,557.14c-7.22,0-13.08-5.86-13.08-13.08c0-6.25,4.38-11.46,10.24-12.76v-83.44h-23.27v192.4h52.22
			v-92.49h-13.57C1191.53,553.19,1186.53,557.14,1180.6,557.14z"/>
		<linearGradient id="SVGID_7_" gradientUnits="userSpaceOnUse" x1="1279.728" y1="505.6999" x2="1348.6642" y2="431.019">
			<stop  offset="0" style="stop-color:#172AB4"/>
			<stop  offset="1" style="stop-color:#00CBFF"/>
		</linearGradient>
		<path class="st6" d="M1300.99,464.04c5.11-5.11,13.39-5.11,18.5,0c1.78,1.78,2.93,3.96,3.47,6.25
			c13.69,2.2,26.42,8.16,36.98,17.36l15.76-15.76c-36.73-33.01-92.79-33.01-129.52,0l15.76,15.76
			c10.18-8.87,22.38-14.73,35.52-17.11C1297.97,468.16,1299.14,465.89,1300.99,464.04z"/>
		<linearGradient id="SVGID_8_" gradientUnits="userSpaceOnUse" x1="1289.7964" y1="514.9937" x2="1358.7325" y2="440.3129">
			<stop  offset="0" style="stop-color:#172AB4"/>
			<stop  offset="1" style="stop-color:#00CBFF"/>
		</linearGradient>
		<path class="st7" d="M1310.94,499.33c9.81,0,19.62,3.21,27.71,9.61l16.85-16.85c-9.37-8.06-20.57-13.35-32.62-15.46
			c-0.57,2.16-1.69,4.21-3.39,5.91c-5.11,5.11-13.39,5.11-18.5,0c-1.63-1.63-2.74-3.6-3.33-5.67c-11.54,2.26-22.26,7.46-31.28,15.23
			l16.85,16.85C1291.33,502.54,1301.13,499.33,1310.94,499.33z"/>
		<linearGradient id="SVGID_9_" gradientUnits="userSpaceOnUse" x1="1346.036" y1="544.0295" x2="1407.8407" y2="544.0295">
			<stop  offset="0" style="stop-color:#EB2275"/>
			<stop  offset="1" style="stop-color:#FF4000"/>
		</linearGradient>
		<path class="st8" d="M1390.58,535.13c5.11,5.11,5.11,13.39,0,18.5c-1.74,1.74-3.84,2.87-6.07,3.42
			c-2.33,13.31-8.21,25.68-17.19,35.98l15.76,15.76c33.01-36.73,33.01-92.79,0-129.52l-15.76,15.76
			c9.14,10.49,15.07,23.12,17.31,36.7C1386.81,532.3,1388.88,533.42,1390.58,535.13z"/>
		<linearGradient id="SVGID_10_" gradientUnits="userSpaceOnUse" x1="1346.0361" y1="544.0295" x2="1407.8408" y2="544.0295">
			<stop  offset="0" style="stop-color:#EB2275"/>
			<stop  offset="1" style="stop-color:#FF4000"/>
		</linearGradient>
		<path class="st9" d="M1372.08,553.62c-5.11-5.11-5.11-13.39,0-18.5c1.77-1.77,3.92-2.91,6.19-3.45
			c-2.16-11.89-7.42-22.94-15.38-32.2l-16.85,16.85c12.8,16.18,12.8,39.23,0,55.42l16.85,16.85c7.82-9.09,13.04-19.9,15.27-31.54
			C1375.93,556.49,1373.82,555.36,1372.08,553.62z"/>
		<linearGradient id="SVGID_11_" gradientUnits="userSpaceOnUse" x1="1210.7399" y1="562.0394" x2="1263.7168" y2="443.0586">
			<stop  offset="0" style="stop-color:#EB2275"/>
			<stop  offset="1" style="stop-color:#FDA52B"/>
		</linearGradient>
		<path class="st10" d="M1230.09,535.69c2.02-2.02,4.53-3.22,7.15-3.65c2.15-13.35,7.93-26.21,17.32-37.01l-15.76-15.76
			c-15.51,17.23-24.2,39.14-24.75,62.41h12.64C1227.25,539.49,1228.38,537.41,1230.09,535.69z"/>
		<linearGradient id="SVGID_12_" gradientUnits="userSpaceOnUse" x1="1214.6559" y1="614.565" x2="1254.7501" y2="524.5172">
			<stop  offset="0" style="stop-color:#EB2275"/>
			<stop  offset="1" style="stop-color:#FDA52B"/>
		</linearGradient>
		<path class="st11" d="M1230.09,554.19c-1.83-1.83-2.99-4.06-3.51-6.41h-12.5c0.86,22.75,9.52,44.12,24.72,61.01l15.76-15.76
			c-8.96-10.29-14.63-22.46-17.01-35.14C1234.82,557.51,1232.19,556.29,1230.09,554.19z"/>
		<linearGradient id="SVGID_13_" gradientUnits="userSpaceOnUse" x1="1235.1906" y1="604.4813" x2="1299.4828" y2="460.0873">
			<stop  offset="0" style="stop-color:#EB2275"/>
			<stop  offset="1" style="stop-color:#FDA52B"/>
		</linearGradient>
		<path class="st12" d="M1266.22,544.03c0-10.19,3.39-19.85,9.63-27.71L1259,499.47c-8.32,9.69-13.49,21.16-15.5,33.08
			c1.86,0.62,3.61,1.66,5.09,3.14c5.11,5.11,5.11,13.39,0,18.5c-1.4,1.4-3.04,2.4-4.79,3.04c2.2,11.3,7.28,22.14,15.2,31.36
			l16.84-16.84C1269.61,563.88,1266.22,554.22,1266.22,544.03z"/>
		<linearGradient id="SVGID_14_" gradientUnits="userSpaceOnUse" x1="1276.2444" y1="631.1584" x2="1357.8188" y2="548.435">
			<stop  offset="0" style="stop-color:#172AB4"/>
			<stop  offset="1" style="stop-color:#00CBFF"/>
		</linearGradient>
		<path class="st13" d="M1310.94,588.75c-10.19,0-19.85-3.39-27.71-9.63l-16.85,16.85c9.32,8.02,20.47,13.3,32.45,15.43
			c0.64-1.61,1.6-3.13,2.91-4.43c5.11-5.11,13.39-5.11,18.5,0c1.3,1.3,2.27,2.81,2.9,4.41c11.95-2.14,23.05-7.41,32.35-15.41
			l-16.85-16.85C1330.79,585.36,1321.13,588.75,1310.94,588.75z"/>
		<linearGradient id="SVGID_15_" gradientUnits="userSpaceOnUse" x1="1286.3442" y1="641.118" x2="1367.9188" y2="558.3946">
			<stop  offset="0" style="stop-color:#172AB4"/>
			<stop  offset="1" style="stop-color:#00CBFF"/>
		</linearGradient>
		<path class="st14" d="M1320.25,625.47c-5.11,5.11-13.39,5.11-18.5,0c-2.2-2.2-3.44-4.98-3.75-7.85
			c-13.34-2.32-25.74-8.21-36.05-17.2l-15.76,15.76c17.82,16.03,40.61,24.8,64.76,24.8c24.15,0,46.94-8.77,64.76-24.8l-15.76-15.76
			c-10.29,8.97-22.64,14.85-35.94,17.18C1323.7,620.47,1322.45,623.26,1320.25,625.47z"/>
		<path class="st15" d="M1180.6,530.98c0.98,0,1.93,0.12,2.84,0.32v-83.44h-5.69v83.44C1178.67,531.1,1179.62,530.98,1180.6,530.98z
			"/>
		<path class="st15" d="M1322.88,476.63c12.05,2.11,23.26,7.4,32.62,15.46l4.44-4.44c-10.56-9.2-23.29-15.16-36.98-17.36
			C1323.45,472.37,1323.42,474.55,1322.88,476.63z"/>
		<path class="st15" d="M1297.66,476.86c-0.58-2.06-0.65-4.24-0.2-6.32c-13.14,2.38-25.34,8.23-35.52,17.11l4.44,4.44
			C1275.4,484.33,1286.12,479.12,1297.66,476.86z"/>
		<path class="st15" d="M1378.27,531.67c2.09-0.5,4.28-0.48,6.37,0.06c-2.24-13.59-8.17-26.22-17.31-36.7l-4.44,4.44
			C1370.85,508.73,1376.11,519.78,1378.27,531.67z"/>
		<path class="st15" d="M1378.15,557.05c-2.23,11.64-7.45,22.45-15.27,31.54l4.44,4.44c8.98-10.3,14.86-22.67,17.19-35.98
			C1382.43,557.57,1380.24,557.57,1378.15,557.05z"/>
		<path class="st15" d="M1243.5,532.55c2.01-11.92,7.18-23.39,15.5-33.08l-4.44-4.44c-9.39,10.8-15.17,23.66-17.32,37.01
			C1239.33,531.7,1241.48,531.87,1243.5,532.55z"/>
		<path class="st15" d="M1243.8,557.23c-2.01,0.73-4.15,0.95-6.25,0.66c2.37,12.68,8.05,24.85,17.01,35.14l4.44-4.44
			C1251.08,579.36,1246,568.53,1243.8,557.23z"/>
		<path class="st15" d="M1323.15,611.38c0.79,1.98,1.07,4.12,0.85,6.21c13.3-2.33,25.65-8.21,35.94-17.18l-4.44-4.44
			C1346.2,603.97,1335.1,609.24,1323.15,611.38z"/>
		<path class="st15" d="M1298.84,611.4c-11.99-2.13-23.13-7.41-32.45-15.43l-4.44,4.44c10.32,8.99,22.71,14.88,36.05,17.2
			C1297.77,615.52,1298.05,613.39,1298.84,611.4z"/>
		<path class="st15" d="M1322.96,470.28c-0.54-2.29-1.68-4.46-3.47-6.25c-5.11-5.11-13.39-5.11-18.5,0
			c-1.85,1.85-3.02,4.12-3.53,6.5c4.4-0.8,8.91-1.23,13.48-1.23C1315.01,469.31,1319.02,469.65,1322.96,470.28z"/>
		<path class="st15" d="M1319.49,482.53c1.7-1.7,2.82-3.74,3.39-5.91c-3.9-0.68-7.89-1.05-11.93-1.05c-4.51,0-8.95,0.44-13.28,1.28
			c0.59,2.08,1.69,4.04,3.33,5.67C1306.1,487.64,1314.38,487.64,1319.49,482.53z"/>
		<path class="st15" d="M1322.88,476.63c0.55-2.08,0.57-4.26,0.08-6.35c-3.94-0.63-7.95-0.97-12.02-0.97
			c-4.57,0-9.07,0.43-13.48,1.23c-0.45,2.09-0.38,4.26,0.2,6.32c4.33-0.85,8.77-1.28,13.28-1.28
			C1314.99,475.58,1318.97,475.95,1322.88,476.63z"/>
		<path class="st15" d="M1384.51,557.05c2.22-0.56,4.33-1.69,6.07-3.42c5.11-5.11,5.11-13.39,0-18.5c-1.7-1.7-3.77-2.83-5.94-3.39
			c0.66,4.03,1.02,8.13,1.02,12.3C1385.66,548.44,1385.26,552.79,1384.51,557.05z"/>
		<path class="st15" d="M1372.08,553.62c1.74,1.74,3.85,2.87,6.07,3.43c0.81-4.25,1.24-8.6,1.24-13.02c0-4.19-0.39-8.32-1.12-12.36
			c-2.27,0.54-4.42,1.69-6.19,3.45C1366.97,540.23,1366.97,548.52,1372.08,553.62z"/>
		<path class="st15" d="M1378.15,557.05c2.09,0.52,4.27,0.52,6.36,0c0.74-4.26,1.15-8.61,1.15-13.02c0-4.16-0.36-8.27-1.02-12.3
			c-2.09-0.54-4.28-0.56-6.37-0.06c0.73,4.04,1.12,8.17,1.12,12.36C1379.39,548.45,1378.97,552.8,1378.15,557.05z"/>
		<path class="st15" d="M1301.75,606.97c-1.3,1.3-2.27,2.82-2.91,4.43c3.96,0.7,8,1.08,12.1,1.08c4.14,0,8.22-0.38,12.21-1.1
			c-0.64-1.61-1.6-3.11-2.9-4.41C1315.14,601.86,1306.86,601.86,1301.75,606.97z"/>
		<path class="st15" d="M1298,617.62c0.31,2.87,1.55,5.65,3.75,7.85c5.11,5.11,13.39,5.11,18.5,0c2.2-2.2,3.45-5,3.75-7.87
			c-4.27,0.75-8.63,1.15-13.06,1.15C1306.55,618.75,1302.23,618.35,1298,617.62z"/>
		<path class="st15" d="M1298.84,611.4c-0.79,1.98-1.06,4.12-0.84,6.21c4.23,0.74,8.56,1.13,12.95,1.13c4.43,0,8.79-0.4,13.06-1.15
			c0.22-2.09-0.06-4.23-0.85-6.21c-3.99,0.71-8.07,1.1-12.21,1.1C1306.84,612.48,1302.79,612.1,1298.84,611.4z"/>
		<path class="st15" d="M1248.59,535.69c-1.48-1.48-3.23-2.52-5.09-3.14c-1.38,8.17-1.29,16.54,0.3,24.67
			c1.75-0.63,3.39-1.64,4.79-3.04C1253.7,549.08,1253.7,540.8,1248.59,535.69z"/>
		<path class="st15" d="M1226.58,547.78c0.52,2.35,1.68,4.58,3.51,6.41c2.1,2.1,4.73,3.32,7.46,3.69c-0.63-3.34-1.03-6.72-1.2-10.1
			H1226.58z"/>
		<path class="st15" d="M1237.24,532.04c-2.62,0.42-5.13,1.63-7.15,3.65c-1.72,1.72-2.84,3.79-3.4,5.99h9.63
			C1236.42,538.45,1236.72,535.24,1237.24,532.04z"/>
		<path class="st15" d="M1243.5,532.55c-2.02-0.68-4.18-0.85-6.27-0.51c-0.51,3.19-0.82,6.41-0.92,9.63h5.84v6.1h-5.79
			c0.17,3.39,0.57,6.76,1.2,10.1c2.09,0.29,4.24,0.07,6.25-0.66C1242.21,549.09,1242.12,540.72,1243.5,532.55z"/>
		<path class="st15" d="M1183.44,531.3v10.38h10.01C1192.5,536.52,1188.53,532.43,1183.44,531.3z"/>
		<path class="st15" d="M1182.44,547.28h-4.69V531.3c-5.86,1.3-10.24,6.51-10.24,12.76c0,7.22,5.86,13.08,13.08,13.08
			c5.93,0,10.93-3.95,12.54-9.36h-10.69V547.28z"/>
		<path class="st15" d="M1182.44,547.28v-5.6h1V531.3c-0.92-0.2-1.87-0.32-2.84-0.32s-1.93,0.12-2.84,0.32v15.98H1182.44z"/>
		<path class="st15" d="M1193.45,541.68c0.14,0.77,0.23,1.57,0.23,2.39c0,1.29-0.19,2.54-0.54,3.72h13.57v-6.1H1193.45z"/>
		<path class="st15" d="M1226.69,541.68h-12.64c-0.02,0.78-0.05,1.57-0.05,2.35c0,1.25,0.04,2.5,0.09,3.75h12.5
			C1226.14,545.77,1226.17,543.68,1226.69,541.68z"/>
		<path class="st15" d="M1236.31,541.68h-9.63c-0.51,2-0.55,4.09-0.1,6.1h9.77C1236.25,545.75,1236.25,543.71,1236.31,541.68z"/>
		<path class="st15" d="M1236.36,547.78h5.79v-6.1h-5.84C1236.25,543.71,1236.25,545.75,1236.36,547.78z"/>
		<path class="st15" d="M1183.44,547.28h-1v0.5h10.69c0.35-1.18,0.54-2.42,0.54-3.72c0-0.82-0.08-1.61-0.23-2.39h-10.01V547.28z"/>
		<rect x="1182.44" y="541.68" class="st15" width="1" height="5.6"/>
		<linearGradient id="SVGID_16_" gradientUnits="userSpaceOnUse" x1="1283.6974" y1="528.374" x2="1337.4421" y2="528.374">
			<stop  offset="0" style="stop-color:#EB2275"/>
			<stop  offset="1" style="stop-color:#FF4000"/>
		</linearGradient>
		<path class="st16" d="M1324.6,530.37c1.28,1.28,2.33,2.71,3.17,4.21l4.59-4.59c-1.77-3.05-4.13-5.72-6.94-7.83l-5.03,5.03
			C1321.9,528.04,1323.32,529.09,1324.6,530.37z"/>
		<linearGradient id="SVGID_17_" gradientUnits="userSpaceOnUse" x1="1283.6974" y1="561.5969" x2="1337.4421" y2="561.5969">
			<stop  offset="0" style="stop-color:#EB2275"/>
			<stop  offset="1" style="stop-color:#FF4000"/>
		</linearGradient>
		<path class="st17" d="M1324.6,557.69c-1.28,1.28-2.71,2.33-4.21,3.17l4.86,4.86l12.2,4l-3.48-10.05l-6.19-6.19
			C1326.93,554.98,1325.88,556.41,1324.6,557.69z"/>
		<linearGradient id="SVGID_18_" gradientUnits="userSpaceOnUse" x1="1283.6974" y1="559.5488" x2="1337.4421" y2="559.5488">
			<stop  offset="0" style="stop-color:#EB2275"/>
			<stop  offset="1" style="stop-color:#FF4000"/>
		</linearGradient>
		<path class="st18" d="M1297.28,557.69c-1.28-1.28-2.33-2.71-3.17-4.21l-5.2,5.2c2.11,2.81,4.77,5.17,7.83,6.94l4.76-4.76
			C1299.99,560.02,1298.56,558.97,1297.28,557.69z"/>
		<linearGradient id="SVGID_19_" gradientUnits="userSpaceOnUse" x1="1283.6974" y1="527.8966" x2="1337.4421" y2="527.8966">
			<stop  offset="0" style="stop-color:#EB2275"/>
			<stop  offset="1" style="stop-color:#FF4000"/>
		</linearGradient>
		<path class="st19" d="M1297.28,530.37c1.28-1.28,2.71-2.33,4.21-3.17l-5.99-5.99c-2.94,1.93-5.47,4.43-7.42,7.35l6.02,6.02
			C1294.95,533.08,1296,531.65,1297.28,530.37z"/>
		<path class="st20" d="M1320.39,527.2l-9.45,9.45l-9.45-9.45c-1.51,0.85-2.93,1.89-4.21,3.17c-1.28,1.28-2.33,2.71-3.17,4.21
			l9.45,9.45l-9.45,9.45c0.85,1.51,1.89,2.93,3.17,4.21c1.28,1.28,2.71,2.33,4.21,3.17l9.45-9.45l9.45,9.45
			c1.51-0.85,2.93-1.89,4.21-3.17c1.28-1.28,2.33-2.71,3.17-4.21l-9.45-9.45l9.45-9.45c-0.85-1.51-1.89-2.93-3.17-4.21
			C1323.32,529.09,1321.9,528.04,1320.39,527.2z"/>
		<linearGradient id="SVGID_20_" gradientUnits="userSpaceOnUse" x1="1283.6974" y1="544.0296" x2="1337.4421" y2="544.0296">
			<stop  offset="0" style="stop-color:#EB2275"/>
			<stop  offset="1" style="stop-color:#FF4000"/>
		</linearGradient>
		<path class="st21" d="M1320.39,527.2l-9.45,9.45l-9.45-9.45c-1.51,0.85-2.93,1.89-4.21,3.17c-1.28,1.28-2.33,2.71-3.17,4.21
			l9.45,9.45l-9.45,9.45c0.85,1.51,1.89,2.93,3.17,4.21c1.28,1.28,2.71,2.33,4.21,3.17l9.45-9.45l9.45,9.45
			c1.51-0.85,2.93-1.89,4.21-3.17c1.28-1.28,2.33-2.71,3.17-4.21l-9.45-9.45l9.45-9.45c-0.85-1.51-1.89-2.93-3.17-4.21
			C1323.32,529.09,1321.9,528.04,1320.39,527.2z"/>
		<linearGradient id="SVGID_21_" gradientUnits="userSpaceOnUse" x1="1283.6974" y1="522.0766" x2="1337.4421" y2="522.0766">
			<stop  offset="0" style="stop-color:#EB2275"/>
			<stop  offset="1" style="stop-color:#FF4000"/>
		</linearGradient>
		<path class="st22" d="M1320.39,527.2l5.03-5.03c-4.36-3.27-9.77-5.21-15.64-5.21c-5.27,0-10.17,1.57-14.27,4.25l5.99,5.99
			C1307.35,523.91,1314.54,523.91,1320.39,527.2z"/>
		<path class="st20" d="M1320.39,527.2c-5.85-3.29-13.04-3.29-18.89,0l9.45,9.45L1320.39,527.2z"/>
		<linearGradient id="SVGID_22_" gradientUnits="userSpaceOnUse" x1="1283.6974" y1="530.6871" x2="1337.4421" y2="530.6871">
			<stop  offset="0" style="stop-color:#EB2275"/>
			<stop  offset="1" style="stop-color:#FF4000"/>
		</linearGradient>
		<path class="st23" d="M1320.39,527.2c-5.85-3.29-13.04-3.29-18.89,0l9.45,9.45L1320.39,527.2z"/>
		<linearGradient id="SVGID_23_" gradientUnits="userSpaceOnUse" x1="1283.6974" y1="543.6189" x2="1337.4421" y2="543.6189">
			<stop  offset="0" style="stop-color:#EB2275"/>
			<stop  offset="1" style="stop-color:#FF4000"/>
		</linearGradient>
		<path class="st24" d="M1294.11,534.58l-6.02-6.02c-2.77,4.14-4.39,9.12-4.39,14.48c0,5.87,1.94,11.28,5.21,15.64l5.2-5.2
			C1290.82,547.62,1290.82,540.44,1294.11,534.58z"/>
		<path class="st20" d="M1294.11,534.58c-3.29,5.85-3.29,13.04,0,18.89l9.45-9.45L1294.11,534.58z"/>
		<linearGradient id="SVGID_24_" gradientUnits="userSpaceOnUse" x1="1283.6974" y1="544.0295" x2="1337.4421" y2="544.0295">
			<stop  offset="0" style="stop-color:#EB2275"/>
			<stop  offset="1" style="stop-color:#FF4000"/>
		</linearGradient>
		<path class="st25" d="M1294.11,534.58c-3.29,5.85-3.29,13.04,0,18.89l9.45-9.45L1294.11,534.58z"/>
		<linearGradient id="SVGID_25_" gradientUnits="userSpaceOnUse" x1="1283.6974" y1="544.832" x2="1337.4421" y2="544.832">
			<stop  offset="0" style="stop-color:#EB2275"/>
			<stop  offset="1" style="stop-color:#FF4000"/>
		</linearGradient>
		<path class="st26" d="M1335.86,543.04c0-4.75-1.28-9.21-3.5-13.04l-4.59,4.59c3.29,5.85,3.29,13.04,0,18.89l6.19,6.19l-1.38-3.98
			C1334.67,551.94,1335.86,547.63,1335.86,543.04z"/>
		<path class="st20" d="M1327.77,553.48c3.29-5.85,3.29-13.04,0-18.89l-9.45,9.45L1327.77,553.48z"/>
		<linearGradient id="SVGID_26_" gradientUnits="userSpaceOnUse" x1="1283.6974" y1="544.0295" x2="1337.4421" y2="544.0295">
			<stop  offset="0" style="stop-color:#EB2275"/>
			<stop  offset="1" style="stop-color:#FF4000"/>
		</linearGradient>
		<path class="st27" d="M1327.77,553.48c3.29-5.85,3.29-13.04,0-18.89l-9.45,9.45L1327.77,553.48z"/>
		<linearGradient id="SVGID_27_" gradientUnits="userSpaceOnUse" x1="1283.6974" y1="564.9913" x2="1337.4421" y2="564.9913">
			<stop  offset="0" style="stop-color:#EB2275"/>
			<stop  offset="1" style="stop-color:#FF4000"/>
		</linearGradient>
		<path class="st28" d="M1301.49,560.86l-4.76,4.76c3.84,2.22,8.29,3.5,13.04,3.5c5.07,0,9.79-1.45,13.79-3.95l1.67,0.55l-4.86-4.86
			C1314.54,564.15,1307.35,564.15,1301.49,560.86z"/>
		<path class="st20" d="M1301.49,560.86c5.85,3.29,13.04,3.29,18.89,0l-9.45-9.45L1301.49,560.86z"/>
		<linearGradient id="SVGID_28_" gradientUnits="userSpaceOnUse" x1="1283.6974" y1="557.372" x2="1337.4421" y2="557.372">
			<stop  offset="0" style="stop-color:#EB2275"/>
			<stop  offset="1" style="stop-color:#FF4000"/>
		</linearGradient>
		<path class="st29" d="M1301.49,560.86c5.85,3.29,13.04,3.29,18.89,0l-9.45-9.45L1301.49,560.86z"/>
	</g>
</g>
</svg>
