<svg xmlns="http://www.w3.org/2000/svg" width="24" height="24" viewBox="0 0 24 24"><defs><style>.a{fill:#fff;}</style></defs><g transform="translate(-4.738 -4.738)"><path class="a" d="M22.914,15.869h3.968a.962.962,0,1,0,0-.709H22.914V13.421h2.557a.355.355,0,0,0,.354-.354V10.732h1.056a.962.962,0,1,0,0-.709h-1.41a.355.355,0,0,0-.354.354v2.335h-2.2v-1.8a.355.355,0,0,0-.354-.354h-1.8v-2.2H23.1A.355.355,0,0,0,23.453,8V6.594a.962.962,0,1,0-.709,0V7.65H20.409A.355.355,0,0,0,20.055,8v2.557H18.315V6.595a.962.962,0,1,0-.709,0v3.967H15.869V6.594a.962.962,0,1,0-.709,0v3.968H13.421V8a.355.355,0,0,0-.354-.354H10.732V6.594a.962.962,0,1,0-.709,0V8a.355.355,0,0,0,.354.354h2.335v2.2h-1.8a.355.355,0,0,0-.354.354v1.8h-2.2V10.378A.355.355,0,0,0,8,10.023H6.595a.962.962,0,1,0,0,.709H7.65v2.335A.355.355,0,0,0,8,13.421h2.557v1.739H6.595a.962.962,0,1,0,0,.709h3.967v1.737H6.594a.962.962,0,1,0,0,.709h3.968v1.739H8a.355.355,0,0,0-.354.354v2.335H6.594a.962.962,0,1,0,0,.709H8a.355.355,0,0,0,.354-.354V20.764h2.2v1.8a.355.355,0,0,0,.354.354h1.8v2.2H10.378a.355.355,0,0,0-.354.354v1.41a.962.962,0,1,0,.709,0V25.826h2.335a.355.355,0,0,0,.354-.354V22.914h1.739v3.967a.962.962,0,1,0,.709,0V22.914h1.737v3.968a.962.962,0,1,0,.709,0V22.914h1.739v2.557a.355.355,0,0,0,.354.354h2.335v1.056a.962.962,0,1,0,.709,0v-1.41a.355.355,0,0,0-.354-.354H20.764v-2.2h1.8a.355.355,0,0,0,.354-.354v-1.8h2.2V23.1a.355.355,0,0,0,.354.354h1.41a.962.962,0,1,0,0-.709H25.826V20.409a.355.355,0,0,0-.354-.354H22.914V18.315h3.967a.962.962,0,1,0,0-.709H22.914Zm4.86-.607a.253.253,0,1,1-.253.253.253.253,0,0,1,.253-.253Zm0-5.137a.253.253,0,1,1-.253.253.253.253,0,0,1,.253-.253ZM23.1,5.449a.253.253,0,1,1-.253.253.253.253,0,0,1,.253-.253Zm-5.137,0a.253.253,0,1,1-.253.253A.253.253,0,0,1,17.961,5.449Zm-2.447,0a.253.253,0,1,1-.253.253.253.253,0,0,1,.253-.253Zm-5.137,0a.253.253,0,1,1-.253.253.253.253,0,0,1,.253-.253ZM5.7,10.631a.253.253,0,1,1,.253-.253.253.253,0,0,1-.253.253Zm0,5.137a.253.253,0,1,1,.253-.253.253.253,0,0,1-.253.253Zm0,2.447a.253.253,0,1,1,.253-.253A.253.253,0,0,1,5.7,18.215Zm0,5.137a.253.253,0,1,1,.253-.253.253.253,0,0,1-.253.253Zm4.675,4.675a.253.253,0,1,1,.253-.253.253.253,0,0,1-.253.253Zm5.137,0a.253.253,0,1,1,.253-.253.253.253,0,0,1-.253.253Zm2.447,0a.253.253,0,1,1,.253-.253A.253.253,0,0,1,17.961,28.027Zm5.137,0a.253.253,0,1,1,.253-.253.253.253,0,0,1-.253.253Zm4.675-5.182a.253.253,0,1,1-.253.253.253.253,0,0,1,.253-.253Zm0-5.137a.253.253,0,1,1-.253.253.253.253,0,0,1,.253-.253Zm-5.568,4.5H11.271V11.271H22.205Z"/><path class="a" d="M50.853,42.5h-8a.355.355,0,0,0-.354.354v8a.355.355,0,0,0,.354.354h8a.355.355,0,0,0,.354-.354v-8A.355.355,0,0,0,50.853,42.5Zm-.354,8h-7.29v-7.29H50.5Z" transform="translate(-30.116 -30.116)"/><path class="a" d="M76.354,55.916a.355.355,0,0,0,.354-.354v-2a.354.354,0,1,0-.709,0v2A.355.355,0,0,0,76.354,55.916Z" transform="translate(-56.832 -38.655)"/></g></svg>