<svg xmlns="http://www.w3.org/2000/svg" width="24" height="22.286" viewBox="0 0 24 22.286"><defs><style>.a{fill:#fff;}</style></defs><path class="a" d="M21,4.286H17.571V3a2.982,2.982,0,0,0-3-3H9A2.982,2.982,0,0,0,6,3V4.286H3a2.982,2.982,0,0,0-3,3v12a2.982,2.982,0,0,0,3,3H21a2.982,2.982,0,0,0,3-3v-12A2.982,2.982,0,0,0,21,4.286ZM6.857,3A2.122,2.122,0,0,1,9,.857h5.571A2.122,2.122,0,0,1,16.714,3V4.286H6.857ZM23.143,19.286A2.122,2.122,0,0,1,21,21.429H3A2.122,2.122,0,0,1,.857,19.286v-12A2.122,2.122,0,0,1,3,5.143H21a2.122,2.122,0,0,1,2.143,2.143Zm-3-11.143H3.857a.429.429,0,1,0,0,.857H20.143a.429.429,0,1,0,0-.857Zm0,4.714H3.857a.429.429,0,1,0,0,.857H20.143a.429.429,0,1,0,0-.857Zm0,4.714H3.857a.429.429,0,0,0,0,.857H20.143a.429.429,0,1,0,0-.857Z"/></svg>