<svg xmlns="http://www.w3.org/2000/svg" xmlns:xlink="http://www.w3.org/1999/xlink" width="50" height="50" viewBox="0 0 50 50"><defs><style>.a{fill:#fff;}.b{clip-path:url(#a);}</style><clipPath id="a"><rect class="a" width="50" height="50" transform="translate(16 95)"/></clipPath></defs><g class="b" transform="translate(-16 -95)"><path class="a" d="M43.569,23.1,50,16.667,33.333,0,26.9,6.431,28.17,7.7l-2.536,2.536L23.1,7.7l1.268-1.268L17.935,0,0,17.935l6.431,6.431L7.7,23.1,26.9,42.3,42.3,26.9l-2.536-2.536L42.3,21.83,43.569,23.1ZM2.536,17.935l15.4-15.4,3.8,3.895-15.4,15.4-3.8-3.895ZM37.772,28.8l-5.8-5.8a.9.9,0,1,0-1.268,1.268l5.8,5.8-2.536,2.536-5.8-5.8A.9.9,0,0,0,26.9,28.08l5.8,5.8-2.536,2.536-5.8-5.8A.9.9,0,0,0,23.1,31.884l5.8,5.8-1.9,1.9L8.967,21.739,21.739,8.967,24.275,11.5,17.21,18.569l5.163,5.163,7.065-7.065L39.674,26.9l-1.9,1.9Zm.634-5.707-8.333-8.333a.876.876,0,0,0-1.268,0L22.373,21.2l-2.536-2.536,6.431-6.431,3.17-3.17,11.5,11.5ZM33.333,2.536l14.13,14.13-3.8,3.8L29.438,6.431l3.895-3.895Z" transform="translate(16 98.85)"/></g></svg>