<svg xmlns="http://www.w3.org/2000/svg" xmlns:xlink="http://www.w3.org/1999/xlink" width="50" height="50" viewBox="0 0 50 50"><defs><style>.a{fill:#fff;}.b{clip-path:url(#a);}</style><clipPath id="a"><rect class="a" width="50" height="50" transform="translate(16 95)"/></clipPath></defs><g class="b" transform="translate(-16 -95)"><g transform="translate(16 102.233)"><g transform="translate(0)"><path class="a" d="M22.589,18.613h-.761a11.877,11.877,0,0,0,.846-4.315c0-4.738-2.623-8.545-5.838-8.545S11,9.56,11,14.3a11.529,11.529,0,0,0,.846,4.315h-.592A4.514,4.514,0,0,0,6.768,23.1v3.976a.8.8,0,0,0,.846.846H26.227a.8.8,0,0,0,.846-.846V23.1A4.514,4.514,0,0,0,22.589,18.613ZM16.836,7.445c2.284,0,4.146,3.13,4.146,6.853a9.823,9.823,0,0,1-.931,4.315h0A3.6,3.6,0,0,1,18.782,20.3h.085a3.094,3.094,0,0,1-1.946.846,3.094,3.094,0,0,1-1.946-.846h.085a3.6,3.6,0,0,1-1.269-1.692h-.085a9.823,9.823,0,0,1-.931-4.315C12.69,10.575,14.552,7.445,16.836,7.445Zm8.545,18.782H8.46V23.1A2.817,2.817,0,0,1,11.252,20.3H12.69a5.1,5.1,0,0,0,4.146,2.538A5.1,5.1,0,0,0,20.981,20.3h1.607A2.817,2.817,0,0,1,25.381,23.1v3.13Zm4.23-7.614H42.3V16.92H29.611Zm3.384,4.23H42.3V21.151H32.995Zm0,4.23H42.3V25.381H32.995ZM46.531,0H3.384A3.684,3.684,0,0,0,0,3.638V32.149a3.468,3.468,0,0,0,3.469,3.384H46.616A3.394,3.394,0,0,0,50,32.149V3.638A3.758,3.758,0,0,0,46.531,0Zm1.692,32.149a1.7,1.7,0,0,1-1.692,1.692H3.384a1.754,1.754,0,0,1-1.692-1.692V3.638A2.006,2.006,0,0,1,3.469,1.692H46.616a1.933,1.933,0,0,1,1.692,1.946V32.149Zm-20.3-22H42.3V8.46H27.919Zm0,4.23H42.3V12.69H27.919Z" transform="translate(0)"/></g></g></g></svg>