<svg xmlns="http://www.w3.org/2000/svg" width="24" height="20.8" viewBox="0 0 24 20.8"><defs><style>.a{fill:#fff;}</style></defs><path class="a" d="M7.467,2.667h16A.5.5,0,0,0,24,2.133a.5.5,0,0,0-.533-.533h-16a.5.5,0,0,0-.533.533A.5.5,0,0,0,7.467,2.667ZM3.2,0H1.6A1.571,1.571,0,0,0,0,1.6V3.2A1.571,1.571,0,0,0,1.6,4.8H3.2A1.571,1.571,0,0,0,4.8,3.2V1.6A1.571,1.571,0,0,0,3.2,0Zm.533,3.2a.5.5,0,0,1-.533.533H1.6A.5.5,0,0,1,1.067,3.2V1.6A.5.5,0,0,1,1.6,1.067H3.2a.5.5,0,0,1,.533.533ZM23.467,9.6h-16a.533.533,0,1,0,0,1.067h16a.533.533,0,1,0,0-1.067ZM3.2,8H1.6A1.571,1.571,0,0,0,0,9.6v1.6a1.571,1.571,0,0,0,1.6,1.6H3.2a1.571,1.571,0,0,0,1.6-1.6V9.6A1.571,1.571,0,0,0,3.2,8Zm.533,3.2a.5.5,0,0,1-.533.533H1.6a.5.5,0,0,1-.533-.533V9.6A.5.5,0,0,1,1.6,9.067H3.2a.5.5,0,0,1,.533.533Zm19.733,6.4h-16a.533.533,0,0,0,0,1.067h16a.533.533,0,1,0,0-1.067ZM3.2,16H1.6A1.571,1.571,0,0,0,0,17.6v1.6a1.571,1.571,0,0,0,1.6,1.6H3.2a1.571,1.571,0,0,0,1.6-1.6V17.6A1.571,1.571,0,0,0,3.2,16Zm.533,3.2a.5.5,0,0,1-.533.533H1.6a.5.5,0,0,1-.533-.533V17.6a.5.5,0,0,1,.533-.533H3.2a.5.5,0,0,1,.533.533Z"/></svg>