<svg xmlns="http://www.w3.org/2000/svg" width="76.307" height="60.521" viewBox="0 0 76.307 60.521"><defs><style>.a{fill:#ffd8b7;}.b{fill:#4ad1e0;}.c{fill:#5097d0;}.d{fill:#620c86;}.e{fill:#604af3;}.f{fill:#ef285c;}.g{fill:#5affc8;}.h{fill:#3090d9;}.i{fill:#284268;}</style></defs><g transform="translate(-5 -51.174)"><path class="a" d="M378.658,222.6v3.77a5.821,5.821,0,0,1-11.638,0V222.6a5.821,5.821,0,0,1,11.638,0Z" transform="translate(-306.991 -141.276)"/><path class="a" d="M226.692,199.371v4.147a6.4,6.4,0,0,1-12.8,0v-4.147a6.4,6.4,0,0,1,12.8,0Z" transform="translate(-177.137 -121.001)"/><path class="a" d="M80.058,222.6v3.77a5.821,5.821,0,0,1-11.638,0V222.6a5.821,5.821,0,0,1,11.638,0Z" transform="translate(-53.78 -141.276)"/><path class="b" d="M33.305,330.1a6.991,6.991,0,0,1,1.429.146h0a7.151,7.151,0,0,0-2.494,5.415V347.07H11V336.7a6.7,6.7,0,0,1,6.788-6.6h2.489a1.716,1.716,0,0,0,1.74-1.692l.021-.02.933,2.63a2.764,2.764,0,0,0,5.165.032l.976-2.642a1.717,1.717,0,0,0,1.706,1.692Z" transform="translate(-5.088 -236.261)"/><path class="c" d="M345.072,330.237a6.961,6.961,0,0,1,1.37-.134h2.487a1.765,1.765,0,0,0,1.231-.5,1.667,1.667,0,0,0,.509-1.2l.023-.021.932,2.63a2.765,2.765,0,0,0,5.167.032l.974-2.642a1.717,1.717,0,0,0,1.705,1.692h2.488a6.7,6.7,0,0,1,6.789,6.6V347.07h-21.24V335.665a7.154,7.154,0,0,0-2.467-5.392Z" transform="translate(-288.352 -236.261)"/><path class="d" d="M172.569,317.625h2.7a7.362,7.362,0,0,1,7.467,7.26v11.4h-32V324.883a7.365,7.365,0,0,1,7.467-7.258h2.737a1.889,1.889,0,0,0,1.914-1.862l.024-.024,1.026,2.894a3.042,3.042,0,0,0,5.684.036l1.072-2.906A1.889,1.889,0,0,0,172.569,317.625Z" transform="translate(-123.578 -225.48)"/><path class="e" d="M375.777,91.367l-3.586,3.38.833,4.787-4.416-2.269-4.426,2.249.856-4.782-3.568-3.4,4.945-.687,2.221-4.348,2.2,4.358Z" transform="translate(-302.284 -29.937)"/><path class="f" d="M218.744,62.873l-4.033,3.8.936,5.385-4.968-2.553-4.98,2.529.964-5.379-4.014-3.822,5.562-.773,2.5-4.892,2.475,4.9Z" transform="translate(-167.606 -5.11)"/><path class="e" d="M69.9,91.367l-3.584,3.38.831,4.787-4.416-2.269L58.3,99.514l.857-4.782-3.569-3.4,4.945-.687L62.756,86.3l2.2,4.358Z" transform="translate(-42.9 -29.937)"/><path class="g" d="M22.349,330.1h.3l-.608-1.712-.021.021a1.716,1.716,0,0,1-1.741,1.692H17.789A6.7,6.7,0,0,0,11,336.7V347.07h4.56V336.7a6.7,6.7,0,0,1,6.788-6.6Z" transform="translate(-5.088 -236.261)"/><path class="h" d="M157.785,319.469a7.558,7.558,0,0,1,4.972-1.844h.784l-.669-1.885-.024.024a1.889,1.889,0,0,1-1.914,1.862H158.2a7.365,7.365,0,0,0-7.467,7.257v11.407h4.56V324.883A7.15,7.15,0,0,1,157.785,319.469Z" transform="translate(-123.578 -225.48)"/><g transform="translate(5 51.174)"><path class="i" d="M200.594,61.852l-.882,4.921a.875.875,0,0,0,.361.868.934.934,0,0,0,.96.07l4.555-2.314,4.543,2.335a.934.934,0,0,0,.96-.065.875.875,0,0,0,.365-.866l-.857-4.925L214.29,58.4a.869.869,0,0,0,.233-.908.905.905,0,0,0-.735-.605l-5.084-.731-2.263-4.485a.915.915,0,0,0-.817-.5h0a.915.915,0,0,0-.817.492L202.52,56.14l-5.088.706a.906.906,0,0,0-.738.6.869.869,0,0,0,.229.909Zm2.658-4.023a.911.911,0,0,0,.688-.483l1.677-3.283,1.661,3.29a.91.91,0,0,0,.685.487l3.731.536-2.707,2.553a.871.871,0,0,0-.264.784l.629,3.614-3.334-1.714a.935.935,0,0,0-.849,0l-3.342,1.7.646-3.611a.871.871,0,0,0-.26-.785l-2.694-2.565Z" transform="translate(-167.517 -51.174)"/><path class="i" d="M358.972,89.927,358.2,94.25a.875.875,0,0,0,.361.868.934.934,0,0,0,.96.07l4-2.033,3.991,2.051a.934.934,0,0,0,.96-.065.875.875,0,0,0,.365-.866l-.752-4.327,3.241-3.056a.869.869,0,0,0,.233-.908.905.905,0,0,0-.735-.605l-4.467-.641-1.988-3.94a.915.915,0,0,0-.817-.5h0a.915.915,0,0,0-.817.492l-2.008,3.93-4.47.62a.906.906,0,0,0-.738.6.869.869,0,0,0,.228.909Zm2.486-3.513a.911.911,0,0,0,.688-.483l1.4-2.739,1.386,2.746a.91.91,0,0,0,.685.487l3.113.447L366.471,89a.871.871,0,0,0-.264.784l.524,3.016-2.782-1.43a.934.934,0,0,0-.849,0l-2.789,1.417.539-3.014a.871.871,0,0,0-.26-.785l-2.248-2.139Z" transform="translate(-302.198 -75.999)"/><path class="i" d="M53.094,89.927,52.32,94.25a.875.875,0,0,0,.361.868.934.934,0,0,0,.96.07l4-2.033,3.992,2.051a.934.934,0,0,0,.96-.065.875.875,0,0,0,.365-.866l-.753-4.327,3.241-3.056a.869.869,0,0,0,.233-.908.905.905,0,0,0-.735-.605l-4.468-.642L58.491,80.8a.915.915,0,0,0-.817-.5h0a.915.915,0,0,0-.817.492l-2.008,3.93-4.47.62a.906.906,0,0,0-.738.6.869.869,0,0,0,.228.909Zm2.486-3.513a.911.911,0,0,0,.689-.483l1.4-2.739,1.386,2.746a.91.91,0,0,0,.686.486l3.113.447L60.593,89a.871.871,0,0,0-.264.784l.524,3.016-2.782-1.43a.934.934,0,0,0-.849,0l-2.789,1.416.539-3.014a.871.871,0,0,0-.26-.785l-2.248-2.139Z" transform="translate(-42.816 -75.999)"/><path class="i" d="M215.2,187.146a7.221,7.221,0,0,0-7.313,7.108V198.4a7.316,7.316,0,0,0,14.626,0v-4.147A7.221,7.221,0,0,0,215.2,187.146Zm5.489,11.255a5.491,5.491,0,0,1-10.978,0v-4.147a5.491,5.491,0,0,1,10.978,0Z" transform="translate(-177.05 -167.058)"/><path class="i" d="M367.75,210.936a6.646,6.646,0,0,0-6.731,6.542v3.77a6.734,6.734,0,0,0,13.462,0v-3.77A6.646,6.646,0,0,0,367.75,210.936Zm4.907,10.312a4.909,4.909,0,0,1-9.814,0v-3.77a4.909,4.909,0,0,1,9.814,0Z" transform="translate(-306.902 -187.333)"/><path class="i" d="M73.606,313.324H71.154a.818.818,0,0,1-.829-.805.894.894,0,0,0-.756-.873.916.916,0,0,0-1.015.574l-.975,2.641a1.844,1.844,0,0,1-3.446-.022l-.933-2.63a.9.9,0,0,0-.657-.575.93.93,0,0,0-.85.237l-.022.021a.874.874,0,0,0-.267.627.818.818,0,0,1-.829.805H58.089a7.973,7.973,0,0,0-1.175.087,8.489,8.489,0,0,0-5.226-1.784h-2.7a.99.99,0,0,1-1-.975.894.894,0,0,0-.756-.873.916.916,0,0,0-1.015.574l-1.072,2.905a2.121,2.121,0,0,1-3.962-.025l-1.026-2.893a.9.9,0,0,0-.658-.575.93.93,0,0,0-.85.238l-.024.023a.874.874,0,0,0-.266.626.989.989,0,0,1-1,.975H34.619a8.49,8.49,0,0,0-5.226,1.785,7.986,7.986,0,0,0-1.175-.088H25.766a.818.818,0,0,1-.829-.805.894.894,0,0,0-.756-.873.916.916,0,0,0-1.015.574l-.975,2.641a1.844,1.844,0,0,1-3.446-.022l-.933-2.63a.9.9,0,0,0-.657-.575.93.93,0,0,0-.85.237l-.022.021a.874.874,0,0,0-.267.627.818.818,0,0,1-.829.805H12.7A7.6,7.6,0,0,0,5,320.808v10.369a.9.9,0,0,0,.912.886H80.4a.9.9,0,0,0,.912-.886V320.808a7.6,7.6,0,0,0-7.7-7.485Zm-47.367,6.448V330.29H6.824v-9.482A5.8,5.8,0,0,1,12.7,315.1h2.488a2.69,2.69,0,0,0,1.548-.485l.285.8a3.686,3.686,0,0,0,6.887.043l.312-.846a2.689,2.689,0,0,0,1.459.482h2.083A7.942,7.942,0,0,0,26.239,319.772Zm32,10.519H28.064V319.772a6.473,6.473,0,0,1,6.556-6.371h2.736a2.866,2.866,0,0,0,1.748-.589l.355,1a3.963,3.963,0,0,0,7.4.046l.385-1.044a2.862,2.862,0,0,0,1.654.585h2.787a6.473,6.473,0,0,1,6.556,6.372Zm21.239,0H60.068V319.772a7.942,7.942,0,0,0-1.524-4.675h2.033a2.69,2.69,0,0,0,1.547-.485l.285.8a3.686,3.686,0,0,0,6.887.043l.312-.846a2.689,2.689,0,0,0,1.459.482h2.538a5.8,5.8,0,0,1,5.877,5.711Z" transform="translate(-5 -271.542)"/><path class="i" d="M62.422,217.478v3.77a6.734,6.734,0,0,0,13.462,0v-3.77a6.734,6.734,0,0,0-13.462,0Zm11.638,0v3.77a4.909,4.909,0,0,1-9.814,0v-3.77a4.909,4.909,0,0,1,9.814,0Z" transform="translate(-53.693 -187.333)"/></g></g></svg>