<svg xmlns="http://www.w3.org/2000/svg" xmlns:xlink="http://www.w3.org/1999/xlink" width="50" height="50" viewBox="0 0 50 50"><defs><style>.a{fill:#fff;}.b{clip-path:url(#a);}</style><clipPath id="a"><rect class="a" width="50" height="50" transform="translate(16 95)"/></clipPath></defs><g class="b" transform="translate(-16 -95)"><g transform="translate(16 95)"><path class="a" d="M25,0A25,25,0,1,0,50,25,25.073,25.073,0,0,0,25,0Zm0,1.923A23.145,23.145,0,0,1,48.077,25a23.62,23.62,0,0,1-4.038,13.077h-.1c-4.615-1.442-11.25-4.423-12.019-6.635a19.516,19.516,0,0,0,.962-3.558,5.036,5.036,0,0,0,1.731-3.269,3.519,3.519,0,0,0-.769-2.5,7.748,7.748,0,0,1,0-2.6,7.017,7.017,0,0,0-.481-5.1C32.019,11.923,29.231,10,25,8.75a8.051,8.051,0,0,0-4.135-1.538c-1.538,0-3.462.769-4.327,4.423v.1a33.69,33.69,0,0,1-.865,6.154l-.1.1-.1.192c0,.192-1.058,3.846,2.019,9.615a9.711,9.711,0,0,1,.769,3.654l-.192.192c-.865.962-3.558,3.558-5.385,3.654H12.5a13.806,13.806,0,0,0-6.058,3.365A23.029,23.029,0,0,1,25,1.923Zm0,46.154A22.981,22.981,0,0,1,7.692,40.192a11.3,11.3,0,0,1,5.192-2.981c2.788-.192,5.865-3.365,6.538-4.135,1.538-.962.673-4.135-.1-5.962v-.192c-2.5-4.519-2.019-7.6-1.923-8.173.673-1.346,1.058-5.1,1.154-6.827.673-2.885,1.923-2.885,2.4-2.885a7.067,7.067,0,0,1,3.077,1.25l.192.1.192.1c3.75,1.058,6.25,2.6,7.308,4.712a4.367,4.367,0,0,1,.385,3.558c-.577,1.25-.1,3.462-.1,3.942v.288l.192.192a1.8,1.8,0,0,1,.481,1.346,4.363,4.363,0,0,1-1.346,2.212l-.385.192v.385A13.355,13.355,0,0,1,30,30.865l-.1.288v.288c.673,3.942,9.9,7.308,12.885,8.173A22.927,22.927,0,0,1,25,48.077Z"/></g></g></svg>