<svg xmlns="http://www.w3.org/2000/svg" width="24.4" height="24.4" viewBox="0 0 24.4 24.4"><defs><style>.a{fill:#fff;stroke:#fff;stroke-width:0.4px;}</style></defs><g transform="translate(-1.8 -1.8)"><path class="a" d="M15.457,26H12.543a.343.343,0,0,1-.331-.253l-.535-1.968a9.957,9.957,0,0,1-2.951-1.22L6.957,23.572a.343.343,0,0,1-.411-.055L4.485,21.456a.343.343,0,0,1-.055-.411l1.012-1.769a9.957,9.957,0,0,1-1.22-2.951l-1.969-.537A.343.343,0,0,1,2,15.457V12.543a.343.343,0,0,1,.253-.331l1.968-.535A9.957,9.957,0,0,1,5.44,8.725L4.428,6.957a.343.343,0,0,1,.055-.411L6.544,4.485a.343.343,0,0,1,.411-.055L8.724,5.442a9.957,9.957,0,0,1,2.951-1.22l.535-1.968A.343.343,0,0,1,12.543,2h2.914a.343.343,0,0,1,.331.253l.535,1.968a9.957,9.957,0,0,1,2.951,1.22l1.769-1.012a.343.343,0,0,1,.411.055l2.061,2.061a.343.343,0,0,1,.055.411L22.558,8.724a9.957,9.957,0,0,1,1.22,2.951l1.968.535a.343.343,0,0,1,.254.332v2.914a.343.343,0,0,1-.253.331l-1.968.535a9.956,9.956,0,0,1-1.22,2.951l1.012,1.769a.343.343,0,0,1-.055.411l-2.061,2.061a.343.343,0,0,1-.411.055l-1.769-1.012a9.957,9.957,0,0,1-2.951,1.22l-.535,1.968a.343.343,0,0,1-.332.254ZM12.8,25.314H15.2l.521-1.914a.343.343,0,0,1,.26-.245,9.288,9.288,0,0,0,3.1-1.283.343.343,0,0,1,.356-.009l1.72.984,1.689-1.69-.984-1.72a.343.343,0,0,1,.009-.356,9.288,9.288,0,0,0,1.283-3.1.343.343,0,0,1,.245-.26l1.915-.521V12.8L23.4,12.286a.343.343,0,0,1-.245-.26,9.288,9.288,0,0,0-1.283-3.1.343.343,0,0,1-.009-.356l.984-1.72-1.69-1.691-1.72.984a.343.343,0,0,1-.356-.009,9.288,9.288,0,0,0-3.1-1.283.343.343,0,0,1-.26-.245L15.2,2.686H12.8L12.286,4.6a.343.343,0,0,1-.26.245,9.288,9.288,0,0,0-3.1,1.283.343.343,0,0,1-.356.009L6.843,5.154,5.154,6.843l.984,1.72a.343.343,0,0,1-.009.356,9.288,9.288,0,0,0-1.283,3.1.343.343,0,0,1-.246.261L2.686,12.8V15.2l1.914.521a.343.343,0,0,1,.245.26,9.288,9.288,0,0,0,1.283,3.1.343.343,0,0,1,.009.356l-.983,1.72,1.689,1.689,1.72-.984a.343.343,0,0,1,.356.009,9.288,9.288,0,0,0,3.1,1.283.343.343,0,0,1,.26.245Z"/><path class="a" d="M53.424,27.005a.343.343,0,0,1-.315-.208,6.04,6.04,0,0,0-.474-.889.343.343,0,1,1,.577-.371,6.656,6.656,0,0,1,.527.99.343.343,0,0,1-.18.45A.347.347,0,0,1,53.424,27.005Z" transform="translate(-33.238 -15.364)"/><path class="a" d="M23.4,30.5a7.094,7.094,0,0,1,0-14.187,5.591,5.591,0,0,1,.61.029.343.343,0,1,1-.074.682A4.939,4.939,0,0,0,23.4,17a6.408,6.408,0,1,0,6.4,6.532.343.343,0,0,1,.686.013A7.126,7.126,0,0,1,23.4,30.5Z" transform="translate(-9.404 -9.404)"/><path class="a" d="M46.512,19.886a.34.34,0,0,1-.206-.069,6.252,6.252,0,0,0-.813-.52.343.343,0,1,1,.326-.6,7.021,7.021,0,0,1,.9.577.343.343,0,0,1-.208.617Z" transform="translate(-28.463 -10.944)"/><path class="a" d="M40.657,49.156a.343.343,0,0,1-.343-.343V45.328a.343.343,0,1,1,.686,0v3.485A.343.343,0,0,1,40.657,49.156Z" transform="translate(-25.178 -28.247)"/><path class="a" d="M32.029,49.156a.343.343,0,0,1-.343-.343V45.328a.343.343,0,1,1,.686,0v3.485A.343.343,0,0,1,32.029,49.156Z" transform="translate(-19.508 -28.247)"/><path class="a" d="M28.828,34.837a.339.339,0,0,1-.161-.04,3.492,3.492,0,0,1,.208-6.267.343.343,0,0,1,.283.625,2.806,2.806,0,0,0-.167,5.036.343.343,0,0,1-.162.645Z" transform="translate(-16.307 -17.414)"/><path class="a" d="M40.3,34.837a.343.343,0,0,1-.162-.645,2.806,2.806,0,0,0-.167-5.037.343.343,0,1,1,.283-.625,3.492,3.492,0,0,1,.208,6.267.339.339,0,0,1-.161.04Z" transform="translate(-24.818 -17.414)"/><path class="a" d="M34.93,31.492H32.8a.572.572,0,0,1-.572-.572V28.843a.343.343,0,0,1,.686,0v1.963h1.9V28.843a.343.343,0,0,1,.686,0V30.92A.572.572,0,0,1,34.93,31.492Z" transform="translate(-19.867 -17.414)"/></g></svg>