<svg xmlns="http://www.w3.org/2000/svg" width="60.734" height="35.888" viewBox="0 0 60.734 35.888"><defs><style>.a{fill:#420606;}.b{fill:#b1e7ff;}</style></defs><g transform="translate(0 -23.272)"><path class="a" d="M57.973,59.16H2.761A2.769,2.769,0,0,1,0,56.4V26.033a2.769,2.769,0,0,1,2.761-2.761H57.973a2.769,2.769,0,0,1,2.761,2.761V56.4A2.769,2.769,0,0,1,57.973,59.16Z"/><path class="b" d="M72.964,76.913H28.794a5.537,5.537,0,0,0-5.521-5.521V52.067a5.537,5.537,0,0,0,5.521-5.521h44.17a5.537,5.537,0,0,0,5.521,5.521V71.392A5.537,5.537,0,0,0,72.964,76.913Z" transform="translate(-20.512 -20.513)"/><g transform="translate(11.043 28.793)"><ellipse class="a" cx="11.043" cy="12.423" rx="11.043" ry="12.423" transform="translate(8.282 0)"/><circle class="a" cx="2.761" cy="2.761" r="2.761" transform="translate(0 9.662)"/><circle class="a" cx="2.761" cy="2.761" r="2.761" transform="translate(33.127 9.662)"/></g><path class="b" d="M216.357,111.63H213.6a1.38,1.38,0,1,1,0-2.761h4.141a1.38,1.38,0,0,0,0-2.761h-1.38a1.38,1.38,0,1,0-2.761,0,4.141,4.141,0,0,0,0,8.282h2.761a1.38,1.38,0,0,1,0,2.761h-4.141a1.38,1.38,0,0,0,0,2.761h1.38a1.38,1.38,0,1,0,2.761,0,4.141,4.141,0,1,0,0-8.282Z" transform="translate(-184.609 -71.794)"/></g></svg>