<svg xmlns="http://www.w3.org/2000/svg" width="50" height="47.552" viewBox="0 0 50 47.552"><defs><style>.a{fill:#fff;fill-rule:evenodd;}</style></defs><g transform="translate(0)"><g transform="translate(0)"><path class="a" d="M47.471,48.191a.972.972,0,0,1-.457-.113l-4.188-2.2-4.188,2.2a.98.98,0,0,1-1.423-1.033l.8-4.663-3.389-3.3a.98.98,0,0,1,.544-1.672l4.681-.68,2.094-4.243a1.02,1.02,0,0,1,1.757,0l2.1,4.243,4.681.68a.98.98,0,0,1,.544,1.672l-3.389,3.3.8,4.663a.979.979,0,0,1-.966,1.146Zm-4.644-4.4a.971.971,0,0,1,.456.113l2.887,1.517-.552-3.214a.981.981,0,0,1,.282-.867l2.335-2.276-3.227-.469a.977.977,0,0,1-.738-.536l-1.444-2.924-1.444,2.924a.977.977,0,0,1-.738.536l-3.227.469,2.335,2.276a.981.981,0,0,1,.282.867l-.552,3.214L42.371,43.9a.971.971,0,0,1,.456-.113Z" transform="translate(-1.666 -0.64)"/><path class="a" d="M50.02,14.7H1.98a.98.98,0,0,1-.835-1.494L8.985.466A.982.982,0,0,1,9.82,0H42.16A.982.982,0,0,1,43,.466l7.751,12.595A.98.98,0,0,1,50.02,14.7ZM3.734,12.74H48.246L41.612,1.96H10.368L3.734,12.74Z" transform="translate(-1)"/><path class="a" d="M29.42,42.4H1.98A.98.98,0,0,1,1,41.42V13.98A.98.98,0,0,1,1.98,13H50a.98.98,0,0,1,.98.98V30.64a.98.98,0,1,1-1.96,0V14.96H2.96V40.44H29.42a.98.98,0,0,1,0,1.96" transform="translate(-1 -0.26)"/><path class="a" d="M29.82,25.74a.98.98,0,0,1-.693-.287L25.9,22.226l-3.227,3.227A.98.98,0,0,1,21,24.76V13.98a.98.98,0,0,1,.98-.98h7.84a.98.98,0,0,1,.98.98V24.76a.979.979,0,0,1-.98.98ZM25.9,19.86a.977.977,0,0,1,.693.287l2.247,2.247V14.96H22.96v7.434l2.247-2.247a.977.977,0,0,1,.693-.287Z" transform="translate(-1.4 -0.26)"/><path class="a" d="M29.82,14.7H21.98a.98.98,0,0,1-.98-.98V.98A.98.98,0,0,1,21.98,0h7.84a.98.98,0,0,1,.98.98V13.72a.98.98,0,0,1-.98.98Zm-6.86-1.96h5.88V1.96H22.96Z" transform="translate(-1.4)"/></g></g></svg>