<svg xmlns="http://www.w3.org/2000/svg" width="24" height="21.106" viewBox="0 0 24 21.106"><defs><style>.a{fill:#fff;fill-rule:evenodd;}.b{fill:none;stroke:#fff;stroke-linecap:round;}</style></defs><g transform="translate(0)"><g transform="translate(0)"><path class="a" d="M40.352,39.409a.445.445,0,0,1-.209-.052l-1.919-1.008-1.919,1.008a.449.449,0,0,1-.652-.473l.367-2.136-1.553-1.513a.449.449,0,0,1,.249-.766l2.145-.312.96-1.944a.467.467,0,0,1,.805,0l.96,1.944,2.145.312a.449.449,0,0,1,.249.766l-1.553,1.513.367,2.136a.448.448,0,0,1-.443.525Zm-2.128-2.017a.445.445,0,0,1,.209.052l1.323.7L39.5,36.667a.45.45,0,0,1,.129-.4l1.07-1.043-1.479-.215a.448.448,0,0,1-.338-.246l-.661-1.34-.661,1.34a.448.448,0,0,1-.338.246l-1.479.215,1.07,1.043a.45.45,0,0,1,.129.4l-.253,1.473,1.323-.7a.445.445,0,0,1,.209-.052Z" transform="matrix(0.985, 0.174, -0.174, 0.985, -13.688, -27.856)"/><path class="a" d="M24.529,7.056H1.47a.47.47,0,0,1-.4-.717L4.833.224A.471.471,0,0,1,5.233,0H20.757a.471.471,0,0,1,.4.224l3.72,6.046a.471.471,0,0,1-.349.787ZM2.312,6.115H23.678L20.494.941H5.5L2.312,6.115Z" transform="translate(-1)"/><path class="a" d="M14.642,27.112H1.47a.471.471,0,0,1-.47-.47V13.47A.471.471,0,0,1,1.47,13H24.52a.471.471,0,0,1,.47.47v8a.47.47,0,1,1-.941,0V13.941H1.941v12.23h12.7a.47.47,0,0,1,0,.941" transform="translate(-1 -6.885)"/><path class="a" d="M25.234,19.115a.471.471,0,0,1-.333-.138l-1.549-1.549L21.8,18.977a.47.47,0,0,1-.8-.333V13.47a.471.471,0,0,1,.47-.47h3.763a.471.471,0,0,1,.47.47v5.174a.47.47,0,0,1-.47.47Zm-1.882-2.822a.469.469,0,0,1,.333.138l1.079,1.079V13.941H21.941v3.568l1.079-1.079a.469.469,0,0,1,.333-.138Z" transform="translate(-11.592 -6.885)"/><path class="a" d="M25.234,7.056H21.47a.471.471,0,0,1-.47-.47V.47A.471.471,0,0,1,21.47,0h3.763a.471.471,0,0,1,.47.47V6.586a.471.471,0,0,1-.47.47Zm-3.293-.941h2.822V.941H21.941Z" transform="translate(-11.592)"/><line class="b" y1="4" x2="1" transform="translate(16.5 16.5)"/></g></g></svg>