<svg xmlns="http://www.w3.org/2000/svg" width="24" height="24" viewBox="0 0 24 24"><defs><style>.a{fill:#fff;}</style></defs><path class="a" d="M286.469,266.938a.469.469,0,1,0-.469-.469A.469.469,0,0,0,286.469,266.938Zm0,0" transform="translate(-272.594 -253.531)"/><path class="a" d="M66.469,266.938a.469.469,0,1,0-.469-.469A.469.469,0,0,0,66.469,266.938Zm0,0" transform="translate(-62.906 -253.531)"/><path class="a" d="M.469,5.906a.469.469,0,0,0,.469-.469V.938h4.5a.469.469,0,0,0,0-.937H.469A.469.469,0,0,0,0,.469V5.438A.469.469,0,0,0,.469,5.906Zm0,0"/><path class="a" d="M5.906,391.438a.469.469,0,0,0-.469-.469H.938v-4.5a.469.469,0,0,0-.937,0v4.969a.469.469,0,0,0,.469.469H5.438A.469.469,0,0,0,5.906,391.438Zm0,0" transform="translate(0 -367.906)"/><path class="a" d="M391.438,386a.469.469,0,0,0-.469.469v4.5h-4.5a.469.469,0,0,0,0,.938h4.969a.469.469,0,0,0,.469-.469v-4.969A.469.469,0,0,0,391.438,386Zm0,0" transform="translate(-367.906 -367.906)"/><path class="a" d="M391.438,0h-4.969a.469.469,0,0,0,0,.938h4.5v4.5a.469.469,0,0,0,.938,0V.469A.469.469,0,0,0,391.438,0Zm0,0" transform="translate(-367.906)"/><path class="a" d="M66,331.156a.469.469,0,0,0,.469.469h4.688a.469.469,0,0,0,.469-.469v-4.687a.469.469,0,0,0-.469-.469H66.469a.469.469,0,0,0-.469.469Zm.938-4.219h3.75v3.75h-3.75Zm0,0" transform="translate(-62.906 -310.719)"/><path class="a" d="M71.156,66H66.469a.469.469,0,0,0-.469.469v4.688a.469.469,0,0,0,.469.469h4.688a.469.469,0,0,0,.469-.469V66.469A.469.469,0,0,0,71.156,66Zm-.469,4.688h-3.75v-3.75h3.75Zm0,0" transform="translate(-62.906 -62.906)"/><path class="a" d="M331.625,66.469a.469.469,0,0,0-.469-.469h-4.687a.469.469,0,0,0-.469.469v4.688a.469.469,0,0,0,.469.469h4.688a.469.469,0,0,0,.469-.469Zm-.937,4.219h-3.75v-3.75h3.75Zm0,0" transform="translate(-310.719 -62.906)"/><path class="a" d="M331.625,331.156v-4.687a.469.469,0,0,0-.469-.469h-4.687a.469.469,0,0,0-.469.469v4.688a.469.469,0,0,0,.469.469h4.688A.469.469,0,0,0,331.625,331.156Zm-.937-.469h-3.75v-3.75h3.75Zm0,0" transform="translate(-310.719 -310.719)"/><path class="a" d="M107.406,366h-.937a.469.469,0,0,0-.469.469v.938a.469.469,0,0,0,.469.469h.938a.469.469,0,0,0,.469-.469v-.937A.469.469,0,0,0,107.406,366Zm0,0" transform="translate(-101.031 -348.844)"/><path class="a" d="M106.469,107.875h.938a.469.469,0,0,0,.469-.469v-.937a.469.469,0,0,0-.469-.469h-.937a.469.469,0,0,0-.469.469v.938A.469.469,0,0,0,106.469,107.875Zm0,0" transform="translate(-101.031 -101.031)"/><path class="a" d="M366.469,107.875h.938a.469.469,0,0,0,.469-.469v-.937a.469.469,0,0,0-.469-.469h-.937a.469.469,0,0,0-.469.469v.938A.469.469,0,0,0,366.469,107.875Zm0,0" transform="translate(-348.844 -101.031)"/><path class="a" d="M366.469,367.875h.938a.469.469,0,0,0,.469-.469v-.937a.469.469,0,0,0-.469-.469h-.937a.469.469,0,0,0-.469.469v.938A.469.469,0,0,0,366.469,367.875Zm0,0" transform="translate(-348.844 -348.844)"/><path class="a" d="M106,266.469a.469.469,0,0,0,.469.469h6.094v2.344a.469.469,0,0,0,.938,0v-2.812a.469.469,0,0,0-.469-.469h-6.562A.469.469,0,0,0,106,266.469Zm0,0" transform="translate(-101.031 -253.531)"/><path class="a" d="M71.156,226.938a.469.469,0,0,0,0-.937H66.469a.469.469,0,0,0,0,.938Zm0,0" transform="translate(-62.906 -215.406)"/><path class="a" d="M206.469,226.938h1.875a.469.469,0,0,0,0-.937h-1.875a.469.469,0,0,0,0,.938Zm0,0" transform="translate(-196.344 -215.406)"/><path class="a" d="M206.469,66a.469.469,0,0,0-.469.469v4.688a.469.469,0,0,0,.469.469h3.281v2.344a.469.469,0,0,0,.469.469h1.875a.469.469,0,0,0,0-.937h-1.406V71.156a.469.469,0,0,0-.469-.469h-3.281V66.469A.469.469,0,0,0,206.469,66Zm0,0" transform="translate(-196.344 -62.906)"/><path class="a" d="M369.281,226h-2.812a.469.469,0,0,0,0,.938h2.813a.469.469,0,0,0,0-.937Zm0,0" transform="translate(-348.844 -215.406)"/><path class="a" d="M331.156,266h-4.687a.469.469,0,0,0,0,.938h4.688a.469.469,0,0,0,0-.937Zm0,0" transform="translate(-310.719 -253.531)"/><path class="a" d="M208.344,366h-1.875a.469.469,0,0,0-.469.469v2.813a.469.469,0,0,0,.938,0v-2.344h1.406a.469.469,0,0,0,0-.937Zm0,0" transform="translate(-196.344 -348.844)"/><path class="a" d="M247.875,311.625h-1.406a.469.469,0,0,0,0,.938h1.875a.469.469,0,0,0,.469-.469v-5.625a.469.469,0,0,0-.937,0Zm0,0" transform="translate(-234.469 -291.656)"/><path class="a" d="M248.344,69.75a.469.469,0,0,0,.469-.469V66.469a.469.469,0,0,0-.937,0v2.344h-1.406a.469.469,0,0,0,0,.938Zm0,0" transform="translate(-234.469 -62.906)"/></svg>