<svg xmlns="http://www.w3.org/2000/svg" xmlns:xlink="http://www.w3.org/1999/xlink" width="50" height="50" viewBox="0 0 50 50"><defs><style>.a{fill:#fff;}.b{clip-path:url(#a);}</style><clipPath id="a"><rect class="a" width="50" height="50" transform="translate(16 95)"/></clipPath></defs><g class="b" transform="translate(-16 -95)"><g transform="translate(20.825 95)"><path class="a" d="M5.789,3.509a.829.829,0,0,0-.877.877.879.879,0,0,0,.877.877H39.474a.829.829,0,0,0,.877-.877.879.879,0,0,0-.877-.877ZM39.474,7.018H5.789a.829.829,0,0,0-.877.877.879.879,0,0,0,.877.877H39.474a.829.829,0,0,0,.877-.877A.879.879,0,0,0,39.474,7.018ZM6.228,10.526A4.236,4.236,0,0,1,1.754,6.579V5.7A4.236,4.236,0,0,1,6.228,1.754H39.912V0H6.228A5.988,5.988,0,0,0,0,5.7V43.86A6.1,6.1,0,0,0,6.14,50H33.6c3.421,0,6.667-2.719,6.667-6.14V10.526ZM38.6,44.737h-.088a4.521,4.521,0,0,1-.789,1.754h0a5.557,5.557,0,0,1-4.035,1.754H6.228a4.445,4.445,0,0,1-3.509-1.754h0a4.011,4.011,0,0,1-.789-1.754H1.754V10.526a6.613,6.613,0,0,0,4.474,1.754H38.684V44.737ZM11.14,29.825h18.07a2.359,2.359,0,0,0,2.368-2.368V19.912a2.359,2.359,0,0,0-2.368-2.368H11.14a2.359,2.359,0,0,0-2.368,2.368v7.544A2.359,2.359,0,0,0,11.14,29.825Zm-.614-9.912a.6.6,0,0,1,.614-.614h18.07a.6.6,0,0,1,.614.614v7.544a.6.6,0,0,1-.614.614H11.14a.6.6,0,0,1-.614-.614ZM23.509,37.719H16.4a.829.829,0,0,0-.877.877.879.879,0,0,0,.877.877h7.105a.829.829,0,0,0,.877-.877A.879.879,0,0,0,23.509,37.719Zm-1.754,3.509H18.246a.829.829,0,0,0-.877.877.879.879,0,0,0,.877.877h3.509a.829.829,0,0,0,.877-.877A.879.879,0,0,0,21.754,41.228Z"/></g></g></svg>