<svg xmlns="http://www.w3.org/2000/svg" xmlns:xlink="http://www.w3.org/1999/xlink" width="50" height="50" viewBox="0 0 50 50"><defs><style>.a{fill:#fff;}.b{clip-path:url(#a);}</style><clipPath id="a"><rect class="a" width="50" height="50" transform="translate(16 95)"/></clipPath></defs><g class="b" transform="translate(-16 -95)"><path class="a" d="M7.018,27.982a4.792,4.792,0,0,0,4.825-4.737,4.737,4.737,0,0,0-4.825-4.737,4.792,4.792,0,0,0-4.825,4.737A4.85,4.85,0,0,0,7.018,27.982Zm0-7.807a3.033,3.033,0,0,1,3.07,2.982,2.979,2.979,0,0,1-3.07,2.982,2.984,2.984,0,1,1,0-5.965ZM6.93,29.825A7.02,7.02,0,0,0,0,36.842c0,2.632.877,3.6,1.053,3.684A8.231,8.231,0,0,1,3.333,45.7C3.421,48.07,5,50,7.018,50s3.6-1.93,3.6-4.3a8.231,8.231,0,0,1,2.281-5.175c.175-.175,1.053-1.14,1.053-3.684A7.038,7.038,0,0,0,6.93,29.825ZM11.754,39.3A10.047,10.047,0,0,0,8.86,45.7c0,1.4-.877,2.544-1.842,2.544S5.175,47.105,5.175,45.7a9.445,9.445,0,0,0-2.895-6.4,4,4,0,0,1-.526-2.456A5.261,5.261,0,0,1,6.93,31.579a5.279,5.279,0,0,1,5.263,5.263A4.615,4.615,0,0,1,11.754,39.3ZM25.439,9.561a4.781,4.781,0,1,0-4.825-4.825A4.926,4.926,0,0,0,25.439,9.561Zm0-7.807a3.033,3.033,0,0,1,3.07,2.982,3.071,3.071,0,0,1-6.14,0A3.091,3.091,0,0,1,25.439,1.754Zm-3.6,25.526c0,2.368,1.579,4.3,3.6,4.3s3.6-1.93,3.6-4.3a8.231,8.231,0,0,1,2.281-5.175c.263-.088,1.14-1.053,1.14-3.684A7.038,7.038,0,0,0,25.439,11.4a6.964,6.964,0,0,0-6.93,7.018c0,2.632.877,3.6,1.053,3.684a8.231,8.231,0,0,1,2.281,5.175Zm3.6-14.123A5.279,5.279,0,0,1,30.7,18.421a4,4,0,0,1-.526,2.456,10.047,10.047,0,0,0-2.895,6.4c0,1.4-.877,2.544-1.842,2.544S23.6,28.684,23.6,27.281a9.445,9.445,0,0,0-2.895-6.4,4,4,0,0,1-.526-2.456,5.336,5.336,0,0,1,5.263-5.263ZM43.07,27.982a4.792,4.792,0,0,0,4.825-4.737,4.737,4.737,0,0,0-4.825-4.737,4.792,4.792,0,0,0-4.825,4.737A4.85,4.85,0,0,0,43.07,27.982Zm0-7.807a3.033,3.033,0,0,1,3.07,2.982,2.979,2.979,0,0,1-3.07,2.982,2.984,2.984,0,1,1,0-5.965Zm-.088,9.649a6.964,6.964,0,0,0-6.93,7.018c0,2.632.877,3.6,1.053,3.684A8.231,8.231,0,0,1,39.386,45.7c0,2.368,1.579,4.3,3.6,4.3s3.6-1.93,3.6-4.3a8.231,8.231,0,0,1,2.281-5.175c.263-.088,1.14-1.053,1.14-3.684a7.038,7.038,0,0,0-7.018-7.018ZM47.807,39.3a10.047,10.047,0,0,0-2.895,6.4c0,1.4-.877,2.544-1.842,2.544s-1.842-1.14-1.842-2.544a9.445,9.445,0,0,0-2.895-6.4,4,4,0,0,1-.526-2.456,5.219,5.219,0,1,1,10.439,0,4.615,4.615,0,0,1-.439,2.456ZM20,25.965l-1.316-1.14-5.263,6.14,1.316,1.14Zm10.965,0,5.263,6.14,1.316-1.14-5.263-6.14ZM13.158,46.491H36.842V44.737H13.158Z" transform="translate(16 95)"/></g></svg>