<svg xmlns="http://www.w3.org/2000/svg" width="24" height="40" viewBox="0 0 24 40"><defs><style>.a{fill:#fff;fill-rule:evenodd;}</style></defs><path class="a" d="M0,12H24V44H0ZM1.333,42.667H22.667V13.333H1.333Z" transform="translate(0 -4)"/><path class="a" d="M4,16H9.333v8H4Zm1.333,6.667H8V17.333H5.333Z" transform="translate(-1.333 -5.333)"/><path class="a" d="M14,16h5.333v8H14Zm1.333,6.667H18V17.333H15.333Z" transform="translate(-4.667 -5.333)"/><path class="a" d="M4,30H9.333v8H4Zm1.333,6.667H8V31.333H5.333Z" transform="translate(-1.333 -10)"/><path class="a" d="M14,30h5.333v8H14Zm1.333,6.667H18V31.333H15.333Z" transform="translate(-4.667 -10)"/><path class="a" d="M20.667,54.667H10V49.333a5.333,5.333,0,1,1,10.667,0v5.333Zm-9.333-1.333h8v-4a4,4,0,1,0-8,0v4Z" transform="translate(-3.333 -14.667)"/><path class="a" d="M24,16h5.333v8H24Zm1.333,6.667H28V17.333H25.333Z" transform="translate(-8 -5.333)"/><path class="a" d="M24,30h5.333v8H24Zm1.333,6.667H28V31.333H25.333Z" transform="translate(-8 -10)"/><path class="a" d="M2,5H23.333v6H2ZM3.333,9.667H22V6.333H3.333Z" transform="translate(-0.667 -1.667)"/><path class="a" d="M17.667,4.667A.667.667,0,0,1,17,4V.667a.667.667,0,1,1,1.333,0V4a.667.667,0,0,1-.667.667" transform="translate(-5.667)"/><path class="a" d="M21.667,5.333A.667.667,0,0,1,21,4.667v-2a.667.667,0,0,1,1.333,0v2a.667.667,0,0,1-.667.667" transform="translate(-7 -0.667)"/><path class="a" d="M13.667,5A.667.667,0,0,1,13,4.333V1.667a.667.667,0,1,1,1.333,0V4.333A.667.667,0,0,1,13.667,5" transform="translate(-4.333 -0.333)"/></svg>