<svg xmlns="http://www.w3.org/2000/svg" width="50" height="49.31" viewBox="0 0 50 49.31"><defs><style>.a{fill:#fff;fill-rule:evenodd;}</style></defs><g transform="translate(-0.763 -0.494)"><g transform="translate(0.763 0.494)"><path class="a" d="M35.288,50.965a.958.958,0,0,1-.45-.111l-4.129-2.17-4.129,2.17a.966.966,0,0,1-1.4-1.018l.789-4.6-3.342-3.257a.966.966,0,0,1,.536-1.649l4.616-.671,2.065-4.184a1.006,1.006,0,0,1,1.733,0l2.066,4.184,4.616.671a.966.966,0,0,1,.536,1.649l-3.342,3.257.789,4.6a.965.965,0,0,1-.953,1.13Zm-4.579-4.34a.958.958,0,0,1,.449.111L34,48.232l-.544-3.17a.968.968,0,0,1,.278-.855l2.3-2.244L32.859,41.5a.964.964,0,0,1-.728-.529l-1.423-2.884-1.423,2.884a.964.964,0,0,1-.728.529l-3.182.463,2.3,2.244a.968.968,0,0,1,.278.855l-.544,3.17,2.847-1.5a.958.958,0,0,1,.449-.111Z" transform="translate(-1.489 -1.655)"/><path class="a" d="M16.842,47.366a.964.964,0,0,1-.683-.283L2.812,33.736a6.992,6.992,0,0,1,0-9.889L25.882.777a.973.973,0,0,1,.713-.283l22.548.683a.967.967,0,0,1,.936.936l.683,22.549a.961.961,0,0,1-.282.712l-9.145,9.146a.966.966,0,0,1-1.366-1.366l8.85-8.851L48.176,3.082,26.953,2.439,4.178,25.214a5.066,5.066,0,0,0,0,7.157L17.525,45.717a.966.966,0,0,1-.683,1.65" transform="translate(-0.763 -0.494)"/><path class="a" d="M40.732,16.764a4.832,4.832,0,1,1,3.416-1.416,4.8,4.8,0,0,1-3.416,1.416Zm0-7.731a2.9,2.9,0,0,0-2.051,4.949,2.969,2.969,0,0,0,4.1,0,2.9,2.9,0,0,0-2.05-4.949Z" transform="translate(-1.946 -0.716)"/><path class="a" d="M17.15,33.9l1.9-1.9A7.724,7.724,0,0,1,17,28.3l1.708-.807a7.1,7.1,0,0,0,1.9,3.514c1.334,1.334,3.007,1.465,4.078.393,1.033-1.032.939-2.4.112-4.358-1.163-2.669-1.482-4.717.151-6.35a4.357,4.357,0,0,1,5.862-.187l1.9-1.9,1.164,1.164-1.823,1.823a7.111,7.111,0,0,1,1.787,3.1l-1.711.77A6.428,6.428,0,0,0,30.4,22.456c-1.448-1.447-2.856-1.127-3.609-.374-.976.976-.77,2.161.188,4.471,1.147,2.723,1.146,4.678-.526,6.35a4.623,4.623,0,0,1-6.163.225l-1.953,1.954L17.15,33.9" transform="translate(-1.31 -1.104)"/></g></g></svg>