<svg xmlns="http://www.w3.org/2000/svg" width="28" height="23" viewBox="0 0 28 23"><defs><style>.a{fill:#fff;fill-rule:evenodd;}.b{fill:none;stroke:#fff;stroke-linecap:round;}</style></defs><g transform="translate(-0.763 -0.494)"><g transform="translate(0.763 0.494)"><path class="a" d="M8.481,22.993a.463.463,0,0,1-.328-.136L1.746,16.45a3.356,3.356,0,0,1,0-4.747L12.82.63a.467.467,0,0,1,.342-.136L23.985.822a.464.464,0,0,1,.449.449l.328,10.824a.461.461,0,0,1-.135.342l-4.39,4.39a.464.464,0,0,1-.656-.656l4.248-4.248L23.521,1.736,13.334,1.428,2.4,12.359a2.432,2.432,0,0,0,0,3.435L8.809,22.2a.464.464,0,0,1-.328.792" transform="translate(-0.763 -0.494)"/><path class="a" d="M38.219,11.739a2.319,2.319,0,1,1,1.64-.68,2.3,2.3,0,0,1-1.64.68Zm0-3.711a1.391,1.391,0,0,0-.984,2.375,1.425,1.425,0,0,0,1.968,0,1.391,1.391,0,0,0-.984-2.375Z" transform="translate(-19.602 -4.036)"/><path class="a" d="M17.072,25.946l.911-.911A3.708,3.708,0,0,1,17,23.258l.82-.387a3.408,3.408,0,0,0,.911,1.687,1.341,1.341,0,0,0,1.957.189c.5-.5.451-1.154.054-2.092-.558-1.281-.712-2.264.072-3.048a2.091,2.091,0,0,1,2.814-.09l.911-.911.559.559-.875.875a3.413,3.413,0,0,1,.858,1.488l-.821.37a3.086,3.086,0,0,0-.829-1.443,1.162,1.162,0,0,0-1.732-.18c-.468.468-.37,1.037.09,2.146.551,1.307.55,2.245-.252,3.048a2.219,2.219,0,0,1-2.958.108l-.937.938-.568-.568" transform="translate(-9.469 -10.204)"/><line class="b" x2="10" transform="translate(17.5 18.5)"/><line class="b" x2="10" transform="translate(14.5 20.5)"/><line class="b" x2="10" transform="translate(11.5 22.5)"/></g></g></svg>