<svg xmlns="http://www.w3.org/2000/svg" width="24" height="29.217" viewBox="0 0 24 29.217"><defs><style>.a{fill:#fff;}</style></defs><path class="a" d="M15.7,8.974A3.809,3.809,0,1,0,11.9,12.835,3.841,3.841,0,0,0,15.7,8.974Zm-6.522,0a2.765,2.765,0,1,1,2.765,2.765A2.784,2.784,0,0,1,9.183,8.974ZM11.9,26.243l.417-.47c.365-.417,8.5-10.174,8.452-16.539A9.07,9.07,0,0,0,11.948,0a9.092,9.092,0,0,0-8.87,9.287c0,6.365,8.087,16.122,8.452,16.539Zm.052-25.2a8.1,8.1,0,0,1,7.826,8.191c0,5.217-6.157,13.3-7.826,15.339C10.33,22.539,4.122,14.452,4.122,9.235A8.033,8.033,0,0,1,11.948,1.043ZM21.391,19.3h-3.13v1.043h2.087l2.087,7.826H1.565l2.087-7.826H5.217V19.3H2.609L0,29.217H24Z"/></svg>