<svg xmlns="http://www.w3.org/2000/svg" width="24" height="23.214" viewBox="0 0 24 23.214"><defs><style>.a{fill:#fff;}</style></defs><g transform="translate(0 0)"><path class="a" d="M21.272,11.565a6.028,6.028,0,0,1-.76-.633l2.11-2.11A1.69,1.69,0,0,0,23.129,7.6V1.73A1.69,1.69,0,0,0,22.623.506,1.861,1.861,0,0,0,21.357,0H15.49a1.533,1.533,0,0,0-1.182.506L.506,14.392A1.6,1.6,0,0,0,0,15.574,1.69,1.69,0,0,0,.506,16.8l5.909,5.909a1.667,1.667,0,0,0,1.182.506,1.533,1.533,0,0,0,1.182-.506l11.1-11.185a6.888,6.888,0,0,0,.844.718c2.026,1.519,2.828,3.461,2.195,5.36a3.554,3.554,0,0,1-3.208,2.659.422.422,0,1,0,0,.844A4.56,4.56,0,0,0,23.762,17.9C24.48,15.659,23.551,13.3,21.272,11.565Zm-2.49-5.571h0a1.561,1.561,0,0,0,1.224-.506,1.682,1.682,0,0,0,0-2.406,1.667,1.667,0,0,0-1.182-.506,1.533,1.533,0,0,0-1.182.506,1.682,1.682,0,0,0,0,2.406.885.885,0,0,0,.338.253,4.88,4.88,0,0,0-.127,2.11,5.709,5.709,0,0,0,1.477,3.039L8.188,22.116a.816.816,0,0,1-1.182,0L1.1,16.207a.859.859,0,0,1-.253-.633.833.833,0,0,1,.253-.591L14.9,1.1a.859.859,0,0,1,.633-.253h5.825a.931.931,0,0,1,.633.253.859.859,0,0,1,.253.633V7.6a.859.859,0,0,1-.253.633l-2.068,2.11A4.593,4.593,0,0,1,18.782,5.993Zm.549-1.984a.454.454,0,0,0-.591.084,3.51,3.51,0,0,0-.464.844L18.233,4.9a.866.866,0,0,1,0-1.224.836.836,0,1,1,1.182,1.182.68.68,0,0,1-.3.169,1.874,1.874,0,0,1,.3-.506A.355.355,0,0,0,19.331,4.01Zm-5.4,2.87a.408.408,0,0,0-.591,0L3.5,16.8a.408.408,0,0,0,0,.591.456.456,0,0,0,.3.127.383.383,0,0,0,.3-.127l9.834-9.876A.575.575,0,0,0,13.928,6.88ZM15.7,9.285,5.867,19.162a.408.408,0,0,0,0,.591.408.408,0,0,0,.591,0l9.834-9.876a.418.418,0,0,0-.591-.591Z" transform="translate(0 0)"/></g></svg>