<svg xmlns="http://www.w3.org/2000/svg" xmlns:xlink="http://www.w3.org/1999/xlink" width="25" height="18" viewBox="0 0 25 18"><defs><style>.a{fill:#fff;}.b{fill:none;stroke:#fff;stroke-linecap:round;}.c{clip-path:url(#a);}</style><clipPath id="a"><rect class="a" width="18" height="18" transform="translate(16 95)"/></clipPath></defs><g transform="translate(-3.763 -2.494)"><g transform="translate(0.763 0.494)"><path class="b" d="M4.025,0H10" transform="translate(17.5 7.5)"/><line class="b" x2="8" transform="translate(19.5 11.5)"/><line class="b" x2="5" transform="translate(22.5 15.5)"/><g class="c" transform="translate(-13 -93)"><g transform="translate(17.753 95)"><path class="a" d="M7.049,11.608c2.35,0,4-3.051,4-5.751a5.727,5.727,0,0,0-.6-2.56,2.684,2.684,0,0,0,.21-1.052A2.775,2.775,0,0,0,10.1.561L9.644,0,9.469.666a1.981,1.981,0,0,1-.561.877A3.655,3.655,0,0,0,6.874.912C4.559.912,2.7,3.121,2.7,5.857,2.63,8.487,4.594,11.608,7.049,11.608Zm-.21-9.995a2.953,2.953,0,0,1,1.824.631l.21.14.21-.14a4.686,4.686,0,0,0,.736-.7,2.261,2.261,0,0,1,.105.7,2.046,2.046,0,0,1-.21.912l-.07.175.07.14a4.908,4.908,0,0,1,.6,2.385c0,2.385-1.4,5.05-3.3,5.05-1.824,0-3.682-2.56-3.682-5.05C3.332,3.507,4.91,1.613,6.839,1.613Zm7.119,15.536a6.615,6.615,0,0,0-5.05-5.436l-.175-.035L6.979,13.326,5.225,11.713l-.175.035a6.672,6.672,0,0,0-5.015,5.4L0,17.535H14.028ZM.807,16.833A6.012,6.012,0,0,1,5.085,12.45l1.929,1.789,1.929-1.824a6.06,6.06,0,0,1,4.278,4.419Z"/></g></g></g></g></svg>