<svg xmlns="http://www.w3.org/2000/svg" xmlns:xlink="http://www.w3.org/1999/xlink" width="50" height="50" viewBox="0 0 50 50"><defs><style>.a{fill:#fff;}.b{clip-path:url(#a);}</style><clipPath id="a"><rect class="a" width="50" height="50" transform="translate(16 95)"/></clipPath></defs><g class="b" transform="translate(-16 -95)"><g transform="translate(21 95)"><path class="a" d="M20.1,33.1c6.7,0,11.4-8.7,11.4-16.4a16.33,16.33,0,0,0-1.7-7.3,7.653,7.653,0,0,0,.6-3,7.913,7.913,0,0,0-1.6-4.8L27.5,0,27,1.9a5.648,5.648,0,0,1-1.6,2.5,10.421,10.421,0,0,0-5.8-1.8C13,2.6,7.7,8.9,7.7,16.7,7.5,24.2,13.1,33.1,20.1,33.1ZM19.5,4.6a8.421,8.421,0,0,1,5.2,1.8l.6.4.6-.4a13.362,13.362,0,0,0,2.1-2,6.448,6.448,0,0,1,.3,2A5.834,5.834,0,0,1,27.7,9l-.2.5.2.4a14,14,0,0,1,1.7,6.8c0,6.8-4,14.4-9.4,14.4-5.2,0-10.5-7.3-10.5-14.4C9.5,10,14,4.6,19.5,4.6ZM39.8,48.9A18.862,18.862,0,0,0,25.4,33.4l-.5-.1-5,4.7-5-4.6-.5.1C6.9,35.4,1.1,41.6.1,48.9L0,50H40ZM2.3,48c1.2-5.8,6-10.7,12.2-12.5L20,40.6l5.5-5.2A17.28,17.28,0,0,1,37.7,48Z"/></g></g></svg>