<svg xmlns="http://www.w3.org/2000/svg" width="20.845" height="24" viewBox="0 0 20.845 24"><defs><style>.a{fill:#fff;}</style></defs><g transform="translate(0 0)"><path class="a" d="M13.556,14.222H6.978C3.022,14.222,0,18.311,0,23.289,0,23.6,0,24,.4,24H20.444c.4,0,.4-.4.4-.711C20.889,18.311,17.511,14.222,13.556,14.222ZM.889,23.111c.044-4.444,2.756-8,6.222-8h6.222c3.511,0,6.622,3.511,6.667,8Zm9.289-10.444A6.333,6.333,0,1,0,3.822,6.311,6.335,6.335,0,0,0,10.178,12.667Zm0-11.778A5.453,5.453,0,0,1,15.6,6.356a4.923,4.923,0,0,1-.089.844c-3.067-.222-3.867-2.311-3.867-2.4l-.311-.889-.489.8C9.689,6.667,5.822,5.956,4.756,5.733A5.479,5.479,0,0,1,10.178.889Zm.978,4.844a5.351,5.351,0,0,0,4.178,2.311A5.428,5.428,0,0,1,4.756,6.622C6.044,6.889,9.467,7.467,11.156,5.733Z" transform="translate(0 0)"/></g></svg>