<svg xmlns="http://www.w3.org/2000/svg" width="24" height="22.378" viewBox="0 0 24 22.378"><defs><style>.a{fill:#fff;}</style></defs><path class="a" d="M23.579,2.984l-5.47-2.9A.99.99,0,0,0,17.736,0a1.21,1.21,0,0,0-.373.083l-5.1,2.694L6.962.083A.99.99,0,0,0,6.589,0a1.21,1.21,0,0,0-.373.083L.5,2.984A.866.866,0,0,0,0,3.73V21.549a.9.9,0,0,0,.456.7.835.835,0,0,0,.456.124.99.99,0,0,0,.373-.083l5.3-2.694,5.3,2.694a1.21,1.21,0,0,0,.373.083h.124a.323.323,0,0,0,.29-.124L17.695,19.6l5.1,2.694a.616.616,0,0,0,.373.083.7.7,0,0,0,.414-.124.855.855,0,0,0,.414-.7V3.73A.758.758,0,0,0,23.579,2.984ZM6.216,18.814.829,21.549V3.73L6.216.995Zm5.8,2.611L7.045,18.9V1.077l4.973,2.528ZM17.4,6.92l-.041.041a.4.4,0,0,0,0,.58l.041.041v11.23l-4.558,2.4V3.357L17.4.953Zm5.8,14.628L18.234,18.9V7.252l.829-.829a.41.41,0,0,0-.58-.58l-.249.249V1.077L23.206,3.73ZM2.155,7.791a.448.448,0,0,0,.29.124.448.448,0,0,0,.29-.124l.746-.746.746.746a.4.4,0,0,0,.58,0,.4.4,0,0,0,0-.58l-.746-.746.746-.746a.41.41,0,0,0-.58-.58l-.746.746-.746-.746a.41.41,0,0,0-.58.58l.746.746-.746.746A.4.4,0,0,0,2.155,7.791ZM8.371,9.407a.4.4,0,0,0,.58,0L9.7,8.661l.746.746a.4.4,0,0,0,.58,0,.4.4,0,0,0,0-.58l-.746-.746.746-.746a.41.41,0,1,0-.58-.58L9.7,7.5l-.746-.746a.41.41,0,0,0-.58.58l.746.746-.746.746A.4.4,0,0,0,8.371,9.407Zm-4.807,6.05a.41.41,0,1,0-.58.58l.746.746-.746.746a.4.4,0,0,0,0,.58.448.448,0,0,0,.29.124.448.448,0,0,0,.29-.124l.746-.746.746.746a.4.4,0,0,0,.58,0,.4.4,0,0,0,0-.58l-.746-.746.746-.746a.41.41,0,0,0-.58-.58l-.746.7ZM20.14,13.385a.41.41,0,0,0-.58.58l.746.746-.746.746a.4.4,0,0,0,0,.58.4.4,0,0,0,.58,0l.746-.746.746.746a.4.4,0,0,0,.58,0,.4.4,0,0,0,0-.58l-.746-.746.746-.746a.41.41,0,1,0-.58-.58l-.746.746Zm-5.014,1.989a1.441,1.441,0,0,0-1.45,1.45,1.407,1.407,0,0,0,1.45,1.409h.041a1.441,1.441,0,0,0,1.45-1.45A1.5,1.5,0,0,0,15.126,15.374Zm0,2.072h0a.587.587,0,0,1-.622-.622.6.6,0,0,1,.622-.58.61.61,0,0,1,.622.622A.631.631,0,0,1,15.126,17.446Zm-1.575-5.263a.4.4,0,0,0,.373.29.152.152,0,0,0,.124-.041.415.415,0,0,0,.249-.539l-.207-.58.373-.373a.41.41,0,0,0-.58-.58l-.58.58a.377.377,0,0,0-.041.5Zm.912,1.409a.415.415,0,0,0-.249.539l.249.787a.4.4,0,0,0,.373.29.152.152,0,0,0,.124-.041.415.415,0,0,0,.249-.539l-.249-.787A.371.371,0,0,0,14.463,13.592Zm.912-3.647a.376.376,0,0,0,.29-.124L16.783,8.7a.41.41,0,0,0-.58-.58L15.084,9.241a.4.4,0,0,0,0,.58A.376.376,0,0,0,15.374,9.946Zm4.1-5.677H20.1l-.456.456a.4.4,0,0,0,0,.58.4.4,0,0,0,.58,0l.5-.5v.7a.415.415,0,0,0,.414.414.392.392,0,0,0,.414-.414V3.854a.415.415,0,0,0-.414-.414H19.477a.392.392,0,0,0-.414.414A.392.392,0,0,0,19.477,4.268Z"/></svg>